<?xml version="1.0" encoding="UTF-8" standalone="no"?>
<!-- Created with Inkscape (http://www.inkscape.org/) -->

<svg
   width="189.6368mm"
   height="28.180746mm"
   viewBox="0 0 189.6368 28.180746"
   version="1.1"
   id="svg122455"
   inkscape:version="1.2.1 (9c6d41e, 2022-07-14)"
   sodipodi:docname="Biosyncrotek-logo.svg"
   xmlns:inkscape="http://www.inkscape.org/namespaces/inkscape"
   xmlns:sodipodi="http://sodipodi.sourceforge.net/DTD/sodipodi-0.dtd"
   xmlns="http://www.w3.org/2000/svg"
   xmlns:svg="http://www.w3.org/2000/svg">
  <sodipodi:namedview
     id="namedview122457"
     pagecolor="#ffffff"
     bordercolor="#000000"
     borderopacity="0.25"
     inkscape:showpageshadow="2"
     inkscape:pageopacity="0.0"
     inkscape:pagecheckerboard="0"
     inkscape:deskcolor="#d1d1d1"
     inkscape:document-units="mm"
     showgrid="false"
     inkscape:zoom="1.5953861"
     inkscape:cx="398.963"
     inkscape:cy="84.932421"
     inkscape:window-width="2056"
     inkscape:window-height="1165"
     inkscape:window-x="1"
     inkscape:window-y="44"
     inkscape:window-maximized="0"
     inkscape:current-layer="layer1" />
  <defs
     id="defs122452">
    <inkscape:path-effect
       effect="spiro"
       id="path-effect80909-0"
       is_visible="true"
       lpeversion="1" />
    <inkscape:path-effect
       effect="spiro"
       id="path-effect80909-0-7"
       is_visible="true"
       lpeversion="1" />
    <inkscape:path-effect
       effect="spiro"
       id="path-effect80909-0-7-1"
       is_visible="true"
       lpeversion="1" />
    <inkscape:path-effect
       effect="spiro"
       id="path-effect80909-0-5"
       is_visible="true"
       lpeversion="1" />
    <inkscape:path-effect
       effect="spiro"
       id="path-effect80913-8"
       is_visible="true"
       lpeversion="1" />
    <inkscape:path-effect
       effect="spiro"
       id="path-effect80913-8-3"
       is_visible="true"
       lpeversion="1" />
    <inkscape:path-effect
       effect="spiro"
       id="path-effect80913-8-2"
       is_visible="true"
       lpeversion="1" />
    <inkscape:path-effect
       effect="spiro"
       id="path-effect80917-0"
       is_visible="true"
       lpeversion="1" />
    <inkscape:path-effect
       effect="spiro"
       id="path-effect80921-4"
       is_visible="true"
       lpeversion="1" />
    <inkscape:path-effect
       effect="spiro"
       id="path-effect80941-6"
       is_visible="true"
       lpeversion="1" />
    <inkscape:path-effect
       effect="spiro"
       id="path-effect80941-6-5"
       is_visible="true"
       lpeversion="1" />
    <inkscape:path-effect
       effect="spiro"
       id="path-effect80945-1"
       is_visible="true"
       lpeversion="1" />
    <inkscape:path-effect
       effect="spiro"
       id="path-effect80945-1-0"
       is_visible="true"
       lpeversion="1" />
  </defs>
  <g
     inkscape:label="Layer 1"
     inkscape:groupmode="layer"
     id="layer1"
     transform="translate(-8.9674517,-107.4023)">
    <path
       style="fill:none;fill-rule:evenodd;stroke:#f65dbb;stroke-width:0.902728;stroke-dasharray:none;stroke-opacity:1"
       d="m 24.786956,115.35528 c 0.02608,0.0221 -0.02296,0.0444 0.0031,0.0664 0.02608,0.0221 -0.01631,0.0445 0.0099,0.0665 0.02608,0.0221 -0.0099,0.0445 0.01619,0.0665 0.02608,0.0221 -0.0033,0.0445 0.02286,0.0665 0.02591,0.0221 0.0036,0.0445 0.02935,0.0665 0.02593,0.0221 0.01,0.0445 0.03573,0.0665 0.0258,0.0221 0.01625,0.0445 0.04209,0.0665 0.0258,0.0221 0.02278,0.0445 0.04845,0.0665 0.02569,0.0221 0.02903,0.0445 0.05455,0.0665 0.0257,0.0221 0.03539,0.0445 0.0608,0.0665 0.02556,0.0221 0.04136,0.0445 0.06677,0.0665 0.02544,0.0221 0.04746,0.0445 0.07263,0.0665 0.02528,0.0221 0.05332,0.0445 0.07848,0.0665 0.02505,0.0221 0.05905,0.0445 0.08406,0.0665 0.02489,0.0221 0.06474,0.0445 0.08954,0.0665 0.02477,0.0221 0.0702,0.0445 0.09485,0.0667 0.02453,0.0221 0.07554,0.0445 0.09993,0.0667 0.02441,0.0221 0.08073,0.0445 0.104983,0.0665 0.0243,0.0221 0.08569,0.0445 0.109799,0.0667 0.024,0.0221 0.09047,0.0445 0.114333,0.0667 0.02373,0.0221 0.09516,0.0445 0.118625,0.0667 0.0236,0.022 0.09971,0.0445 0.122916,0.0667 0.02333,0.022 0.103854,0.0445 0.126937,0.0667 0.0231,0.0221 0.107757,0.0445 0.130587,0.0667 0.02283,0.0221 0.111657,0.0445 0.134092,0.0667 0.02255,0.0221 0.11517,0.0445 0.137472,0.0667 0.02217,0.0221 0.118411,0.0445 0.140461,0.0667 0.02193,0.0221 0.121534,0.0445 0.143188,0.0667 0.02164,0.022 0.124389,0.0445 0.145661,0.0667 0.02142,0.0221 0.127001,0.0445 0.147997,0.0667 0.02113,0.0221 0.129335,0.0445 0.150078,0.0667 0.02075,0.0221 0.131417,0.0445 0.151765,0.0667 0.02037,0.0221 0.133236,0.0445 0.153196,0.0667 0.02009,0.0221 0.134795,0.0445 0.154497,0.0667 0.01957,0.0221 0.135963,0.0445 0.155273,0.0667 0.01933,0.0221 0.137131,0.0446 0.15606,0.0667 0.01892,0.0221 0.137911,0.0445 0.156443,0.0667 0.01853,0.0221 0.138302,0.0445 0.156443,0.0667 0.01814,0.022 0.138562,0.0445 0.156318,0.0667 0.01773,0.0221 0.138558,0.0445 0.155926,0.0667 0.01733,0.0221 0.138168,0.0445 0.155144,0.0667 0.01696,0.0221 0.137649,0.0445 0.1541,0.0667 0.01658,0.0221 0.136876,0.0446 0.152939,0.0667 0.01611,0.022 0.1357,0.0445 0.151379,0.0667 0.01569,0.022 0.134272,0.0445 0.149554,0.0667 0.01514,0.0221 0.132584,0.0445 0.147481,0.0667 0.01474,0.0221 0.130753,0.0445 0.145072,0.0667 0.01433,0.0221 0.128674,0.0445 0.142543,0.0667 0.01385,0.0221 0.126296,0.0445 0.139692,0.0667 0.01342,0.0221 0.123685,0.0445 0.136604,0.0667 0.01295,0.0221 0.12082,0.0445 0.133272,0.0667 0.01241,0.0221 0.117743,0.0445 0.129703,0.0667 0.01204,0.022 0.114442,0.0445 0.125912,0.0667 0.01145,0.0221 0.110913,0.0445 0.121893,0.0667 0.01093,0.022 0.107158,0.0445 0.117647,0.0667 0.01048,0.0221 0.103223,0.0445 0.113215,0.0667 0.01005,0.0221 0.09909,0.0445 0.108567,0.0667 0.0094,0.022 0.09477,0.0445 0.103731,0.0667 0.0089,0.022 0.09028,0.0445 0.0987,0.0667 0.0084,0.0221 0.08561,0.0445 0.09352,0.0667 0.0079,0.0221 0.08077,0.0445 0.08817,0.0667 0.0072,0.0221 0.07577,0.0445 0.08264,0.0665 0.0069,0.022 0.07066,0.0445 0.07699,0.0665 0.0064,0.0221 0.06539,0.0445 0.0712,0.0665 0.0059,0.0221 0.06001,0.0445 0.06529,0.0665 0.0054,0.0221 0.05451,0.0445 0.05924,0.0665 0.0047,0.0221 0.04889,0.0445 0.05309,0.0665 0.0042,0.0221 0.04319,0.0445 0.04685,0.0665 0.0039,0.0221 0.03745,0.0445 0.04053,0.0665 0.0033,0.022 0.03159,0.0445 0.03412,0.0665 0.0028,0.0221 0.02568,0.0445 0.02771,0.0665 0.002,0.022 0.0197,0.0445 0.02119,0.0665 0.0015,0.022 0.01373,0.0445 0.01467,0.0665 7.85e-4,0.0221 0.0077,0.0445 0.0081,0.0665 3.36e-4,0.0221 0.002,0.0445 0.0014,0.0665 -1.77e-4,0.022 -0.0044,0.0445 -0.005,0.0664 -8.59e-4,0.0221 -0.01037,0.0445 -0.01168,0.0664 -0.0012,0.0221 -0.01637,0.0445 -0.01819,0.0664 -0.0021,0.0221 -0.02236,0.0445 -0.0247,0.0664 -0.0024,0.0221 -0.02829,0.0445 -0.03124,0.0664 -0.0028,0.022 -0.03419,0.0443 -0.03766,0.0664 -0.0036,0.0221 -0.03996,0.0443 -0.044,0.0664 -0.0039,0.0221 -0.04572,0.0445 -0.05029,0.0664 -0.0046,0.022 -0.05139,0.0443 -0.05646,0.0664 -0.005,0.0221 -0.05692,0.0443 -0.06258,0.0663 -0.0055,0.0221 -0.06238,0.0445 -0.06855,0.0664 -0.0064,0.0221 -0.06769,0.0443 -0.0744,0.0664 -0.0067,0.0221 -0.0729,0.0444 -0.08015,0.0663 -0.0071,0.022 -0.07797,0.0443 -0.08573,0.0663 -0.0077,0.0221 -0.08288,0.0444 -0.09113,0.0663 -0.0082,0.022 -0.08766,0.0443 -0.09646,0.0663 -0.0087,0.022 -0.09222,0.0444 -0.101533,0.0663 -0.0091,0.022 -0.09665,0.0444 -0.106482,0.0663 -0.0099,0.0221 -0.100888,0.0444 -0.111196,0.0663 -0.01026,0.022 -0.104926,0.0444 -0.115765,0.0663 -0.01082,0.0221 -0.108773,0.0444 -0.120101,0.0663 -0.01145,0.0221 -0.112402,0.0441 -0.124222,0.0663 -0.0118,0.0221 -0.115825,0.0441 -0.128133,0.0663 -0.01229,0.0221 -0.11903,0.0441 -0.131816,0.0663 -0.0128,0.022 -0.122007,0.0441 -0.135259,0.0663 -0.01327,0.0221 -0.124746,0.0441 -0.138482,0.0663 -0.01376,0.022 -0.127244,0.0441 -0.141447,0.0663 -0.0142,0.0221 -0.129504,0.0441 -0.144163,0.0663 -0.01467,0.022 -0.131468,0.0441 -0.146594,0.0663 -0.01511,0.0221 -0.133295,0.0441 -0.148814,0.0663 -0.01563,0.0221 -0.134862,0.0441 -0.15076,0.0663 -0.01604,0.0221 -0.136034,0.0441 -0.152457,0.0663 -0.0164,0.022 -0.137069,0.0441 -0.153882,0.0663 -0.01678,0.022 -0.137719,0.0441 -0.155052,0.0663 -0.01725,0.022 -0.138106,0.0441 -0.155833,0.0663 -0.0176,0.022 -0.13837,0.0441 -0.156354,0.0663 -0.01811,0.022 -0.138366,0.0441 -0.156872,0.0663 -0.01839,0.022 -0.137847,0.0441 -0.15674,0.0663 -0.01885,0.0221 -0.13733,0.0441 -0.156483,0.0663 -0.01926,0.0221 -0.136418,0.0441 -0.156087,0.0663 -0.01955,0.022 -0.135253,0.0441 -0.155184,0.0663 -0.0199,0.022 -0.13395,0.0441 -0.154147,0.0663 -0.02032,0.022 -0.132257,0.0441 -0.152845,0.0663 -0.0207,0.022 -0.130308,0.0441 -0.151281,0.0663 -0.02095,0.022 -0.127974,0.0441 -0.149332,0.0663 -0.02124,0.022 -0.125502,0.0441 -0.147124,0.0663 -0.02162,0.0221 -0.122916,0.0441 -0.144788,0.0663 -0.022,0.0221 -0.12005,0.0441 -0.142189,0.0663 -0.02228,0.0221 -0.116801,0.0444 -0.139199,0.0663 -0.02251,0.022 -0.113416,0.0441 -0.136206,0.0663 -0.02266,0.022 -0.109649,0.0444 -0.132703,0.0663 -0.02291,0.022 -0.10576,0.0444 -0.129063,0.0663 -0.02331,0.022 -0.101586,0.0444 -0.12517,0.0663 -0.02355,0.022 -0.09745,0.0444 -0.121138,0.0663 -0.02384,0.022 -0.09289,0.0444 -0.116848,0.0663 -0.0241,0.022 -0.08821,0.0444 -0.112425,0.0663 -0.02422,0.022 -0.08328,0.0442 -0.107622,0.0663 -0.02447,0.022 -0.07819,0.0444 -0.102807,0.0663 -0.02458,0.022 -0.073,0.0444 -0.09773,0.0663 -0.02472,0.022 -0.06754,0.0444 -0.09254,0.0663 -0.02487,0.022 -0.06196,0.0444 -0.0871,0.0663 -0.02514,0.022 -0.05621,0.0444 -0.0815,0.0663 -0.02526,0.022 -0.05039,0.0444 -0.07591,0.0664 -0.02538,0.022 -0.04442,0.0444 -0.06993,0.0664 -0.02555,0.022 -0.03843,0.0444 -0.06411,0.0664 -0.02568,0.022 -0.03234,0.0444 -0.058,0.0664 -0.02582,0.0221 -0.02607,0.0445 -0.05188,0.0664 -0.02574,0.022 -0.01959,0.0445 -0.04561,0.0664 -0.02591,0.022 -0.01323,0.0445 -0.03914,0.0664 -0.02604,0.022 -0.0069,0.0445 -0.03294,0.0664 -0.02604,0.022 -2.3e-4,0.0445 -0.02627,0.0664 -0.02618,0.022 0.0064,0.0445 -0.01992,0.0664 -0.02617,0.022 0.0129,0.0445 -0.01331,0.0664 -0.02617,0.0221 0.0194,0.0445 -0.0067,0.0664 -0.02617,0.022 0.02598,0.0445 -1.48e-4,0.0666 -0.02617,0.0221 0.03266,0.0445 0.0066,0.0665 -0.02617,0.022 0.03913,0.0445 0.01299,0.0665 -0.02617,0.0221 0.04566,0.0445 0.01964,0.0666 -0.02617,0.022 0.05201,0.0445 0.02598,0.0665 -0.02604,0.022 0.05852,0.0445 0.03262,0.0665 -0.02603,0.022 0.06488,0.0445 0.03886,0.0666 -0.02591,0.022 0.07111,0.0445 0.04533,0.0665 -0.02574,0.022 0.07723,0.0445 0.05158,0.0665 -0.02582,0.022 0.08334,0.0445 0.05768,0.0666 -0.02568,0.022 0.08931,0.0445 0.06379,0.0665 -0.02554,0.022 0.09518,0.0445 0.06963,0.0665 -0.02539,0.022 0.100888,0.0445 0.07562,0.0665 -0.02526,0.0221 0.106335,0.0445 0.0812,0.0667 -0.02514,0.022 0.111793,0.0445 0.08679,0.0667 -0.02487,0.022 0.116992,0.0445 0.09225,0.0667 -0.02472,0.022 0.122061,0.0445 0.09747,0.0667 -0.02458,0.022 0.126858,0.0445 0.102509,0.0666 -0.02447,0.022 0.131545,0.0446 0.107328,0.0667 -0.02422,0.022 0.136091,0.0446 0.112131,0.0667 -0.0241,0.022 0.140255,0.0446 0.116538,0.0667 -0.02384,0.022 0.144411,0.0446 0.12083,0.0666 -0.02355,0.022 0.148179,0.0446 0.124863,0.0667 -0.0233,0.0221 0.151818,0.0446 0.128766,0.0667 -0.02291,0.022 0.155198,0.0446 0.132407,0.0667 -0.02266,0.022 0.158314,0.0446 0.135908,0.0667 -0.02251,0.022 0.161044,0.0445 0.138902,0.0665 -0.02228,0.022 0.163773,0.0446 0.141891,0.0667 -0.022,0.022 0.166111,0.0446 0.144494,0.0667 -0.02162,0.022 0.168187,0.0446 0.146825,0.0667 -0.02123,0.022 0.17001,0.0446 0.149036,0.0667 -0.02095,0.022 0.171573,0.0445 0.150985,0.0666 -0.0207,0.022 0.172741,0.0446 0.152549,0.0667 -0.02032,0.0221 0.173781,0.0446 0.153849,0.0667 -0.0199,0.022 0.174556,0.0446 0.154882,0.0667 -0.01955,0.022 0.174946,0.0446 0.155796,0.0667 -0.01925,0.022 0.175077,0.0445 0.156186,0.0667 -0.01885,0.022 0.174949,0.0446 0.156441,0.0667 -0.01838,0.022 0.17456,0.0446 0.156574,0.0667 -0.0181,0.022 0.173785,0.0446 0.156057,0.0667 -0.0176,0.022 0.172871,0.0446 0.155536,0.0665 -0.01724,0.022 0.171569,0.0446 0.154754,0.0667 -0.01679,0.022 0.17001,0.0446 0.153586,0.0667 -0.01641,0.022 0.168061,0.0446 0.15216,0.0667 -0.01604,0.0221 0.16598,0.0446 0.150466,0.0667 -0.01562,0.022 0.163642,0.0445 0.148515,0.0665 -0.01511,0.022 0.160957,0.0446 0.146299,0.0667 -0.01467,0.022 0.158066,0.0446 0.143864,0.0667 -0.0142,0.022 0.154884,0.0446 0.141147,0.0667 -0.01377,0.022 0.15144,0.0446 0.138186,0.0667 -0.01327,0.022 0.147752,0.0445 0.134965,0.0665 -0.01279,0.0221 0.143827,0.0446 0.13152,0.0667 -0.01229,0.022 0.139655,0.0446 0.127832,0.0667 -0.0118,0.022 0.135253,0.0446 0.123927,0.0667 -0.01145,0.022 0.130627,0.0446 0.119794,0.0665 -0.01082,0.0221 0.125784,0.0445 0.115454,0.0667 -0.01026,0.022 0.120729,0.0445 0.110914,0.0667 -0.0099,0.022 0.115491,0.0445 0.106167,0.0667 -0.0091,0.022 0.110046,0.0445 0.101248,0.0667 -0.0087,0.022 0.104429,0.0445 0.09615,0.0665 -0.0082,0.022 0.09862,0.0445 0.09086,0.0667 -0.0077,0.022 0.09266,0.0445 0.08542,0.0667 -0.0072,0.0221 0.08654,0.0445 0.07984,0.0667 -0.0067,0.022 0.08026,0.0445 0.07412,0.0666 -0.0064,0.0219 0.07389,0.0445 0.06825,0.0665 -0.0055,0.0219 0.06737,0.0445 0.06227,0.0665 -0.005,0.0219 0.06072,0.0445 0.05616,0.0665 -0.0046,0.0219 0.05398,0.0445 0.04998,0.0665 -0.0039,0.022 0.04718,0.0445 0.04369,0.0664 -0.0036,0.022 0.04029,0.0445 0.03738,0.0665 -0.0028,0.0219 0.0333,0.0445 0.03094,0.0665 -0.0024,0.0219 0.02627,0.0445 0.02443,0.0665 -0.0021,0.0219 0.01919,0.0445 0.01792,0.0665 -0.0012,0.022 0.01216,0.0444 0.01145,0.0664 -8.57e-4,0.022 0.005,0.0445 0.0047,0.0665 -1.77e-4,0.022 -0.0021,0.0445 -0.0018,0.0665 3.35e-4,0.022 -0.0091,0.0445 -0.0083,0.0666 7.9e-4,0.0219 -0.01636,0.0445 -0.01498,0.0665 0.0015,0.0219 -0.02347,0.0444 -0.02149,0.0663 0.0019,0.0219 -0.03056,0.0445 -0.028,0.0664 0.0028,0.022 -0.03754,0.0445 -0.03443,0.0664 0.0033,0.0219 -0.04447,0.0444 -0.04082,0.0664 0.0039,0.022 -0.05134,0.0444 -0.04714,0.0663 0.0042,0.022 -0.0581,0.0442 -0.05339,0.0664 0.0047,0.022 -0.06479,0.0442 -0.05954,0.0664 0.0054,0.0219 -0.07138,0.0444 -0.06556,0.0664 0.0059,0.022 -0.07783,0.0444 -0.07149,0.0664 0.0064,0.0219 -0.08416,0.0442 -0.0773,0.0663 0.0069,0.022 -0.09036,0.0444 -0.08294,0.0664 0.0075,0.022 -0.09641,0.0444 -0.08847,0.0664 0.0079,0.022 -0.102262,0.0444 -0.09382,0.0664 0.0084,0.0219 -0.10797,0.0444 -0.09902,0.0663 0.0089,0.022 -0.113511,0.0442 -0.104036,0.0663 0.0094,0.022 -0.11885,0.0444 -0.108872,0.0663 0.01005,0.022 -0.123993,0.0442 -0.113513,0.0663 l -0.117946,0.0663 c 0.01093,0.022 -0.133668,0.0442 -0.122186,0.0663 0.01156,0.022 -0.138176,0.0442 -0.126222,0.0663 0.01204,0.0219 -0.142448,0.0442 -0.13,0.0663 0.01242,0.0219 -0.14649,0.0442 -0.133565,0.0663 0.01295,0.022 -0.1503,0.0442 -0.136903,0.0663 0.01342,0.022 -0.153856,0.0442 -0.13999,0.0663 0.01385,0.0219 -0.157156,0.0442 -0.142839,0.0663 0.01435,0.0219 -0.160267,0.0442 -0.14537,0.0663 0.01474,0.0219 -0.163059,0.0442 -0.147776,0.0663 0.01512,0.022 -0.16553,0.0442 -0.149852,0.0663 0.01569,0.0219 -0.16774,0.0442 -0.151675,0.0662 0.0161,0.022 -0.169689,0.0442 -0.153235,0.0663 0.01658,0.022 -0.171375,0.0442 -0.154401,0.0663 0.01696,0.022 -0.172806,0.0442 -0.155441,0.0663 0.01733,0.022 -0.173979,0.0442 -0.15622,0.0663 0.01773,0.022 -0.174758,0.0442 -0.156615,0.0663 0.01815,0.022 -0.175274,0.0442 -0.15674,0.0663 0.01853,0.022 -0.17567,0.0442 -0.156741,0.0663 0.01892,0.022 -0.17567,0.0442 -0.156357,0.0663 0.01934,0.022 -0.175275,0.0442 -0.155568,0.0663 0.01957,0.022 -0.174757,0.0442 -0.154795,0.0663 0.02009,0.022 -0.173843,0.0442 -0.153498,0.0663 0.02037,0.022 -0.172801,0.0442 -0.152059,0.0663 0.02076,0.022 -0.171374,0.0442 -0.150375,0.0663 0.02113,0.022 -0.169554,0.0442 -0.148292,0.0663 0.02142,0.022 -0.167612,0.0442 -0.145958,0.0663 0.02164,0.022 -0.165527,0.0442 -0.143486,0.0663 0.02193,0.022 -0.163058,0.0442 -0.140759,0.0663 0.02217,0.022 -0.160202,0.0442 -0.137768,0.0663 0.02255,0.0219 -0.157215,0.0442 -0.134389,0.0662 0.02283,0.022 -0.153965,0.0442 -0.130883,0.0663 0.0231,0.022 -0.150454,0.0442 -0.127245,0.0663 0.02333,0.022 -0.146685,0.0442 -0.123213,0.0663 0.02361,0.022 -0.142784,0.0442 -0.118921,0.0663 0.02373,0.022 -0.138764,0.0442 -0.114633,0.0663 0.024,0.022 -0.134343,0.0442 -0.110091,0.0663 0.02428,0.022 -0.129661,0.0442 -0.105274,0.0663 0.02442,0.022 -0.124852,0.0442 -0.100211,0.0663 0.02453,0.022 -0.119908,0.0442 -0.09513,0.0663 0.02477,0.022 -0.114846,0.0444 -0.08982,0.0664 0.02489,0.022 -0.109515,0.0444 -0.08436,0.0664 0.02505,0.022 -0.103935,0.0444 -0.07878,0.0664 0.02528,0.022 -0.09835,0.0444 -0.07292,0.0664 0.02545,0.0219 -0.0925,0.0442 -0.06708,0.0663 0.02556,0.022 -0.08665,0.0444 -0.06111,0.0664 0.02569,0.022 -0.08053,0.0444 -0.05485,0.0664 0.02568,0.022 -0.07457,0.0444 -0.04876,0.0664 0.02579,0.022 -0.06819,0.0444 -0.04238,0.0663 0.02579,0.022 -0.06196,0.0444 -0.03602,0.0664 0.02593,0.022 -0.05559,0.0444 -0.02962,0.0664 0.02593,0.022 -0.0491,0.0444 -0.02316,0.0664 0.02608,0.022 -0.04258,0.0445 -0.0165,0.0665 0.02608,0.022 -0.0361,0.0444 -0.01005,0.0663 0.02608,0.022 -0.02946,0.0444 -0.0035,0.0665"
       title="cos(2*x)"
       id="path76877-4"
       sodipodi:nodetypes="csscccsssccscccsscssscccccssccccccscsccsscccccccsccscsccsccccccsccssccccccsccscccccsscsscccccccssssccccccccccssccscsccccscccssccccsscscccssscccccssscsssscscsccscsscscccccccscscccsscccscccscccssccscccsssscssssssscsccscsccccscccccccccssccscsccssscccccccccsscsccssccccsccccccsscscccssccscccccccsscsscscc" />
    <path
       style="fill:none;fill-opacity:1;fill-rule:evenodd;stroke:#94acff;stroke-width:0.902728;stroke-dasharray:none;stroke-opacity:1"
       d="m 31.818265,115.34437 c 0.02608,0.0221 -0.02946,0.0443 -0.0038,0.0664 0.02608,0.0221 -0.03597,0.0443 -0.01,0.0664 0.02593,0.0221 -0.04261,0.0445 -0.01665,0.0664 0.02608,0.0221 -0.04909,0.0444 -0.02317,0.0664 0.02608,0.0221 -0.05545,0.0445 -0.02951,0.0664 0.02593,0.0221 -0.06197,0.0445 -0.03602,0.0664 0.02579,0.0221 -0.06818,0.0444 -0.04252,0.0664 0.02579,0.0221 -0.0743,0.0444 -0.04862,0.0664 0.02573,0.0221 -0.08054,0.0443 -0.05497,0.0664 0.02556,0.0221 -0.08652,0.0443 -0.06109,0.0664 0.02556,0.0221 -0.09236,0.0443 -0.06695,0.0664 0.02528,0.0221 -0.09821,0.0443 -0.07307,0.0664 0.02528,0.0221 -0.103799,0.0443 -0.07866,0.0664 0.02504,0.0221 -0.109256,0.0442 -0.08436,0.0663 0.02489,0.0221 -0.114586,0.0441 -0.08983,0.0664 0.02478,0.0221 -0.119781,0.0441 -0.09514,0.0663 0.02466,0.022 -0.124734,0.0441 -0.100363,0.0663 0.02453,0.0221 -0.129403,0.0441 -0.105141,0.0663 0.02412,0.0221 -0.134082,0.0441 -0.11009,0.0663 0.024,0.0221 -0.138371,0.0441 -0.114644,0.0663 0.02373,0.022 -0.142529,0.0441 -0.119055,0.0663 0.0236,0.0221 -0.146557,0.0441 -0.123212,0.0663 0.02333,0.022 -0.150195,0.0441 -0.127115,0.0663 0.0231,0.0221 -0.153703,0.0441 -0.131008,0.0663 0.02281,0.0221 -0.156955,0.0441 -0.134393,0.0663 0.02255,0.0221 -0.159941,0.0441 -0.137636,0.0663 0.02217,0.0221 -0.162669,0.0441 -0.14076,0.0663 0.02193,0.0221 -0.165137,0.0441 -0.143486,0.0663 0.02164,0.022 -0.167352,0.0441 -0.14609,0.0663 0.02142,0.0221 -0.169294,0.0441 -0.148291,0.0663 0.02113,0.022 -0.170989,0.0441 -0.150247,0.0663 0.02061,0.0221 -0.172413,0.0441 -0.152063,0.0663 0.02037,0.0221 -0.173587,0.0441 -0.153491,0.0663 0.01998,0.0221 -0.174495,0.0441 -0.15479,0.0663 0.01973,0.022 -0.175018,0.0441 -0.155704,0.0663 0.01934,0.022 -0.17528,0.0441 -0.15622,0.0663 0.01891,0.022 -0.175277,0.0441 -0.156746,0.0663 0.01853,0.022 -0.175015,0.0441 -0.156874,0.0663 0.0183,0.022 -0.174362,0.0441 -0.156611,0.0663 0.01773,0.0221 -0.173456,0.0441 -0.156092,0.0663 0.01733,0.0221 -0.172413,0.0441 -0.155569,0.0663 0.01697,0.0221 -0.170991,0.0441 -0.154407,0.0663 0.01658,0.022 -0.169297,0.0441 -0.153231,0.0663 0.01616,0.0221 -0.167219,0.0441 -0.151546,0.0663 0.01569,0.022 -0.165138,0.0441 -0.149853,0.0663 0.01514,0.0221 -0.162541,0.0441 -0.147773,0.0663 0.01477,0.0221 -0.15981,0.0441 -0.145436,0.0663 0.01438,0.0221 -0.156696,0.0441 -0.142835,0.0663 0.01385,0.0221 -0.153447,0.0441 -0.13998,0.0663 0.01334,0.0221 -0.149806,0.0441 -0.136859,0.0663 0.01281,0.022 -0.146037,0.0441 -0.133611,0.0663 0.01242,0.0221 -0.142008,0.0441 -0.129971,0.0663 0.01192,0.0221 -0.13772,0.0441 -0.126207,0.0663 0.01145,0.0221 -0.133167,0.0441 -0.122174,0.0663 0.01082,0.0221 -0.128493,0.0441 -0.118018,0.0663 0.01048,0.0221 -0.123414,0.0441 -0.113465,0.0663 0.01005,0.022 -0.11836,0.0441 -0.108919,0.0663 0.0094,0.022 -0.112892,0.0443 -0.10399,0.0663 0.0088,0.022 -0.107441,0.0441 -0.09905,0.0663 0.0083,0.0221 -0.101708,0.0444 -0.09384,0.0663 0.008,0.0221 -0.09587,0.0444 -0.08838,0.0663 0.0072,0.022 -0.08991,0.0442 -0.08294,0.0663 0.0069,0.022 -0.08366,0.0444 -0.07734,0.0663 0.0064,0.0221 -0.0773,0.0443 -0.07151,0.0664 0.0059,0.022 -0.07077,0.0443 -0.06552,0.0664 0.005,0.0221 -0.06431,0.0444 -0.05955,0.0664 0.0047,0.022 -0.05767,0.0444 -0.05343,0.0664 0.0042,0.022 -0.05079,0.0444 -0.04719,0.0664 0.0039,0.022 -0.04389,0.0444 -0.04082,0.0664 0.0033,0.0221 -0.03697,0.0444 -0.03443,0.0664 0.0028,0.022 -0.03001,0.0443 -0.02797,0.0664 0.002,0.022 -0.02283,0.0445 -0.02146,0.0664 0.0015,0.0221 -0.01584,0.0445 -0.01498,0.0664 0.0011,0.022 -0.0087,0.0445 -0.0083,0.0664 3.39e-4,0.022 -0.0016,0.0445 -0.0018,0.0665 -1.81e-4,0.022 0.0055,0.0445 0.0047,0.0664 -8.58e-4,0.022 0.01267,0.0445 0.01145,0.0665 -0.0012,0.022 0.01976,0.0445 0.01793,0.0665 -0.0021,0.022 0.0268,0.0445 0.02439,0.0665 -0.0024,0.0221 0.03382,0.0445 0.03089,0.0665 -0.0028,0.0221 0.04085,0.0445 0.03741,0.0665 -0.0036,0.0221 0.04772,0.0445 0.04366,0.0665 -0.0039,0.0221 0.05461,0.0445 0.05001,0.0665 -0.0046,0.0221 0.06123,0.0445 0.05613,0.0665 -0.005,0.0221 0.06786,0.0445 0.06236,0.0665 -0.0057,0.0221 0.07437,0.0445 0.06822,0.0665 -0.0064,0.022 0.08072,0.0445 0.07407,0.0665 -0.0067,0.0221 0.08712,0.0445 0.07991,0.0665 -0.0075,0.0221 0.0931,0.0445 0.08537,0.0665 -0.0077,0.0221 0.09919,0.0445 0.09095,0.0667 -0.0083,0.0221 0.104903,0.0445 0.09614,0.0667 -0.0088,0.0221 0.110486,0.0445 0.101207,0.0667 -0.0091,0.022 0.115955,0.0445 0.106145,0.0667 -0.0099,0.022 0.121279,0.0445 0.110958,0.0667 -0.01037,0.0221 0.126219,0.0445 0.115371,0.0667 -0.01082,0.0221 0.131154,0.0445 0.119795,0.0667 -0.01145,0.0221 0.135836,0.0445 0.123965,0.0667 -0.01192,0.0221 0.140121,0.0445 0.127858,0.0667 -0.01241,0.022 0.144278,0.0446 0.131492,0.0667 -0.01279,0.022 0.14818,0.0446 0.135,0.0667 -0.01331,0.0221 0.151822,0.0446 0.138128,0.0667 -0.01372,0.0221 0.155322,0.0446 0.141108,0.0667 -0.01408,0.022 0.158572,0.0446 0.143971,0.0667 -0.01475,0.0221 0.161431,0.0446 0.146308,0.0667 -0.01511,0.0221 0.164031,0.0446 0.148515,0.0667 -0.0155,0.0221 0.166503,0.0446 0.150467,0.0667 -0.01604,0.0221 0.168583,0.0446 0.15216,0.0667 -0.01641,0.022 0.170401,0.0446 0.153586,0.0667 -0.01696,0.022 0.171956,0.0446 0.154625,0.0667 -0.01725,0.022 0.173259,0.0446 0.155536,0.0667 -0.0176,0.0221 0.174299,0.0446 0.156186,0.0667 -0.0181,0.022 0.174942,0.0446 0.156446,0.0667 -0.01852,0.022 0.175335,0.0446 0.156441,0.0667 -0.01875,0.022 0.175469,0.0446 0.156315,0.0667 -0.01927,0.0221 0.175335,0.0446 0.155664,0.0667 -0.01955,0.022 0.174948,0.0446 0.155018,0.0667 -0.0199,0.022 0.174167,0.0446 0.153845,0.0667 -0.02032,0.022 0.173131,0.0446 0.152543,0.0667 -0.0207,0.022 0.171833,0.0446 0.15086,0.0667 -0.02097,0.022 0.170399,0.0446 0.149037,0.0667 -0.02123,0.022 0.168579,0.0446 0.146959,0.0667 -0.02162,0.022 0.166372,0.0446 0.144487,0.0667 -0.02191,0.0221 0.164034,0.0446 0.141892,0.0667 -0.02228,0.022 0.161435,0.0446 0.138907,0.0667 -0.02256,0.022 0.158569,0.0446 0.135777,0.0667 -0.02278,0.0221 0.155457,0.0446 0.132405,0.0667 -0.02305,0.022 0.152073,0.0446 0.128765,0.0667 -0.02335,0.022 0.148438,0.0446 0.124991,0.0667 -0.02353,0.022 0.144538,0.0446 0.120831,0.0667 -0.02384,0.0221 0.140512,0.0446 0.11655,0.0667 -0.02396,0.022 0.13622,0.0445 0.111997,0.0667 -0.02422,0.022 0.131798,0.0445 0.107451,0.0667 -0.0245,0.022 0.127131,0.0445 0.102509,0.0667 -0.02458,0.022 0.122187,0.0445 0.09747,0.0667 -0.02487,0.022 0.117112,0.0445 0.09212,0.0667 -0.02499,0.022 0.111917,0.0445 0.08679,0.0665 -0.02515,0.0221 0.106595,0.0445 0.08134,0.0666 -0.02526,0.022 0.100877,0.0445 0.0755,0.0665 -0.02539,0.022 0.09528,0.0445 0.06977,0.0665 -0.02555,0.022 0.08943,0.0445 0.06379,0.0665 -0.02568,0.022 0.08347,0.0445 0.05768,0.0666 -0.02574,0.022 0.07734,0.0445 0.05158,0.0665 -0.02591,0.022 0.07112,0.0445 0.0452,0.0665 -0.0259,0.022 0.06489,0.0445 0.03897,0.0666 -0.02604,0.022 0.05852,0.0445 0.03251,0.0665 -0.02604,0.022 0.05216,0.0445 0.02611,0.0665 -0.02604,0.022 0.04566,0.0445 0.01964,0.0666 -0.02618,0.022 0.03913,0.0445 0.01299,0.0665 -0.02618,0.022 0.03254,0.0445 0.0064,0.0665 -0.02602,0.022 0.02598,0.0445 -1.48e-4,0.0664 -0.02604,0.0221 0.01952,0.0445 -0.0067,0.0664 -0.02618,0.022 0.0128,0.0445 -0.01331,0.0664 -0.02617,0.022 0.0064,0.0445 -0.01992,0.0664 -0.02603,0.0221 -3.71e-4,0.0445 -0.0264,0.0664 -0.02604,0.022 -0.0069,0.0445 -0.03278,0.0664 -0.02601,0.022 -0.01338,0.0445 -0.03926,0.0664 -0.02591,0.022 -0.0197,0.0444 -0.04549,0.0664 -0.0259,0.022 -0.02607,0.0444 -0.05187,0.0664 -0.02574,0.022 -0.03234,0.0445 -0.058,0.0664 -0.02568,0.022 -0.03858,0.0444 -0.06411,0.0664 -0.02553,0.022 -0.04467,0.0441 -0.07006,0.0663 -0.02537,0.022 -0.05051,0.0444 -0.07577,0.0664 -0.02526,0.022 -0.05649,0.0444 -0.08162,0.0664 -0.02513,0.0221 -0.06209,0.0444 -0.0871,0.0664 -0.02499,0.022 -0.06767,0.0445 -0.09241,0.0663 -0.02487,0.022 -0.07312,0.0444 -0.09773,0.0663 -0.02459,0.022 -0.07847,0.0444 -0.102807,0.0663 -0.0245,0.022 -0.08352,0.0444 -0.107746,0.0663 -0.02422,0.022 -0.08835,0.0444 -0.11231,0.0663 -0.02395,0.022 -0.09314,0.0441 -0.11685,0.0663 -0.02384,0.0221 -0.09769,0.0444 -0.121137,0.0663 -0.02355,0.0221 -0.101987,0.0444 -0.125286,0.0663 -0.02335,0.022 -0.106009,0.0442 -0.129064,0.0663 -0.02305,0.022 -0.109911,0.0444 -0.132701,0.0663 -0.02277,0.022 -0.113546,0.0441 -0.136075,0.0663 -0.02254,0.022 -0.117064,0.0444 -0.139204,0.0663 -0.02228,0.022 -0.120304,0.0444 -0.142187,0.0663 -0.02191,0.022 -0.123171,0.0441 -0.144785,0.0663 -0.02162,0.022 -0.125888,0.0441 -0.147256,0.0663 -0.02124,0.022 -0.12836,0.0441 -0.149335,0.0663 -0.02097,0.022 -0.130569,0.0441 -0.151155,0.0663 -0.0207,0.0221 -0.13252,0.0441 -0.15284,0.0663 -0.02032,0.022 -0.134211,0.0441 -0.154143,0.0663 -0.0199,0.022 -0.13564,0.0441 -0.155314,0.0663 -0.01955,0.022 -0.136809,0.0441 -0.155959,0.0663 -0.01926,0.022 -0.13772,0.0441 -0.156614,0.0663 -0.01875,0.022 -0.138242,0.0441 -0.15674,0.0663 -0.01852,0.022 -0.138629,0.0441 -0.156745,0.0663 -0.0181,0.022 -0.138756,0.0441 -0.15648,0.0663 -0.0176,0.022 -0.138503,0.0441 -0.155833,0.0663 -0.01724,0.022 -0.138105,0.0441 -0.154922,0.0663 -0.01695,0.0221 -0.137458,0.0441 -0.153883,0.0663 -0.01641,0.0221 -0.136421,0.0441 -0.152456,0.0662 -0.01604,0.0221 -0.135246,0.0441 -0.150762,0.0663 -0.01551,0.0221 -0.133693,0.0441 -0.148815,0.0663 -0.01511,0.0221 -0.132005,0.0441 -0.146607,0.0663 -0.01475,0.022 -0.130049,0.0441 -0.144266,0.0663 -0.01406,0.022 -0.127703,0.0441 -0.141403,0.0663 -0.01371,0.022 -0.125246,0.0441 -0.138424,0.0663 -0.01332,0.022 -0.122507,0.0441 -0.135301,0.0663 -0.0128,0.022 -0.119525,0.0444 -0.131788,0.0663 -0.01241,0.022 -0.116277,0.0444 -0.128151,0.0663 -0.01192,0.0221 -0.112893,0.0441 -0.12426,0.0663 -0.01145,0.022 -0.109257,0.0444 -0.120089,0.0663 -0.01082,0.022 -0.105366,0.0444 -0.115669,0.0663 -0.01037,0.022 -0.101462,0.0444 -0.111275,0.0663 -0.0099,0.022 -0.09718,0.0444 -0.106459,0.0663 -0.0091,0.022 -0.09276,0.0442 -0.101514,0.0663 -0.0088,0.022 -0.08821,0.0444 -0.09644,0.0663 -0.0083,0.022 -0.08352,0.0444 -0.09125,0.0664 -0.0077,0.022 -0.07847,0.0444 -0.08567,0.0664 -0.0072,0.022 -0.07351,0.0441 -0.08019,0.0663 -0.0067,0.022 -0.06819,0.0442 -0.07435,0.0664 -0.0064,0.022 -0.06302,0.0442 -0.0685,0.0664 -0.0057,0.0219 -0.05754,0.0442 -0.06267,0.0664 -0.005,0.0219 -0.05183,0.0444 -0.05641,0.0664 -0.0046,0.022 -0.04621,0.0442 -0.0503,0.0663 -0.0039,0.0219 -0.04051,0.0444 -0.04392,0.0664 -0.0036,0.022 -0.03477,0.0445 -0.03771,0.0664 -0.0028,0.0219 -0.02884,0.0444 -0.03117,0.0664 -0.0024,0.0219 -0.02283,0.0445 -0.02467,0.0663 -0.0021,0.022 -0.01699,0.0445 -0.0182,0.0664 -0.0012,0.0219 -0.01082,0.0445 -0.01168,0.0666 -8.58e-4,0.022 -0.0047,0.0445 -0.005,0.0665 -1.81e-4,0.022 0.0011,0.0445 0.0014,0.0666 3.38e-4,0.022 0.0071,0.0444 0.0081,0.0664 0.0011,0.0219 0.01328,0.0445 0.01467,0.0665 0.0015,0.022 0.01912,0.0445 0.02114,0.0665 0.002,0.022 0.02511,0.0445 0.02767,0.0665 0.0028,0.0219 0.03111,0.0445 0.03412,0.0665 0.0033,0.022 0.03695,0.0442 0.04052,0.0664 0.0039,0.022 0.04266,0.0444 0.04688,0.0665 0.0042,0.022 0.04838,0.0445 0.05312,0.0665 0.0047,0.0219 0.05396,0.0444 0.05924,0.0665 0.005,0.0219 0.05942,0.0445 0.06523,0.0665 0.0059,0.0219 0.06488,0.0444 0.0712,0.0665 0.0064,0.0219 0.07006,0.0445 0.07706,0.0665 0.0069,0.022 0.07516,0.0445 0.08264,0.0667 0.0072,0.0219 0.08021,0.0445 0.0881,0.0667 0.008,0.022 0.08516,0.0445 0.09355,0.0665 0.0083,0.022 0.08984,0.0444 0.09875,0.0667 0.0088,0.022 0.09425,0.0445 0.103675,0.0667 0.0094,0.022 0.09867,0.0445 0.108635,0.0667 0.01005,0.0219 0.102694,0.0445 0.113178,0.0666 0.01048,0.0219 0.10672,0.0445 0.117721,0.0666 0.01082,0.0219 0.110361,0.0445 0.121869,0.0666 0.01145,0.022 0.113868,0.0445 0.12591,0.0667 0.01192,0.022 0.117256,0.0445 0.129673,0.0667 0.01242,0.0219 0.12037,0.0445 0.133316,0.0667 0.01281,0.0219 0.123084,0.0445 0.136562,0.0665 0.01334,0.022 0.125821,0.0445 0.139683,0.0667 0.01385,0.022 0.128163,0.0446 0.142536,0.0667 0.0144,0.022 0.130374,0.0445 0.145141,0.0666 0.01477,0.022 0.13219,0.0446 0.147475,0.0666 0.01514,0.022 0.133882,0.0446 0.149554,0.0667 0.01569,0.022 0.135187,0.0446 0.151251,0.0666 0.01617,0.022 0.136351,0.0446 0.152935,0.0667 0.01658,0.022 0.137264,0.0446 0.154109,0.0667 0.01696,0.022 0.13791,0.0444 0.155272,0.0667 0.01733,0.022 0.138047,0.0446 0.155795,0.0666 0.01773,0.022 0.138173,0.0446 0.156318,0.0667 0.01829,0.022 0.138039,0.0446 0.156574,0.0667 0.01853,0.022 0.13739,0.0446 0.156446,0.0667 0.01892,0.022 0.136611,0.0444 0.155925,0.0665 0.01933,0.022 0.135703,0.0446 0.155407,0.0667 0.01972,0.022 0.134397,0.0446 0.154494,0.0667 0.01997,0.022 0.132842,0.0446 0.153195,0.0667 0.02037,0.022 0.131027,0.0446 0.151765,0.0665 0.02061,0.022 0.128945,0.0446 0.149949,0.0667 0.02113,0.022 0.126733,0.0446 0.147996,0.0666 0.02142,0.022 0.124146,0.0444 0.145791,0.0667 0.02164,0.022 0.12128,0.0445 0.143189,0.0667 0.02193,0.022 0.118173,0.0445 0.140462,0.0665 0.02217,0.022 0.114787,0.0445 0.137339,0.0667 0.02255,0.022 0.111398,0.0444 0.134096,0.0667 0.02281,0.022 0.107634,0.0445 0.130711,0.0667 0.0231,0.022 0.103472,0.0445 0.126823,0.0666 0.02333,0.0219 0.09944,0.0445 0.122917,0.0665 0.02361,0.022 0.09502,0.0445 0.118756,0.0666 0.02373,0.022 0.09036,0.0445 0.114335,0.0667 0.024,0.022 0.08555,0.0445 0.109797,0.0667 0.02412,0.022 0.08048,0.0445 0.10486,0.0665 0.02453,0.022 0.07541,0.0445 0.100046,0.0667 0.02466,0.022 0.07007,0.0445 0.09485,0.0667 0.02477,0.022 0.06462,0.0445 0.08952,0.0667 0.02489,0.022 0.0589,0.0444 0.08405,0.0666 0.02504,0.022 0.0532,0.0445 0.07834,0.0665 0.02528,0.022 0.04734,0.0445 0.07276,0.0665 0.02528,0.022 0.04124,0.0445 0.06665,0.0666 0.02556,0.022 0.03524,0.0445 0.0608,0.0665 0.02556,0.022 0.02904,0.0445 0.05468,0.0665 0.02572,0.0219 0.02263,0.0444 0.04833,0.0664 0.02579,0.022 0.01625,0.0445 0.04221,0.0665 0.02579,0.022 0.0099,0.0444 0.03573,0.0665 0.02593,0.022 0.0036,0.0445 0.02923,0.0665 0.02608,0.022 -0.0033,0.0445 0.02285,0.0664 0.02608,0.022 -0.0099,0.0445 0.01635,0.0665 0.02593,0.022 -0.01631,0.0444 0.0098,0.0665 0.0261,0.022 -0.02283,0.0445 0.0035,0.0665"
       title="-cos(2*x)"
       id="path77629-9" />
    <path
       style="opacity:0.99;fill:none;fill-opacity:1;fill-rule:evenodd;stroke:#f65dbb;stroke-width:0.520756;stroke-dasharray:none;stroke-opacity:1"
       d="m 31.246838,129.12886 -3.77003,-0.0449"
       id="path80907-4"
       inkscape:path-effect="#path-effect80909-0"
       inkscape:original-d="m 31.246838,129.12886 c -1.272422,-0.0149 -2.513384,-0.0301 -3.77003,-0.0449" />
    <path
       style="opacity:0.99;fill:none;fill-opacity:1;fill-rule:evenodd;stroke:#f65dbb;stroke-width:0.520756;stroke-dasharray:none;stroke-opacity:1"
       d="m 31.020319,119.20348 -3.770032,-0.0448"
       id="path80907-4-7"
       inkscape:path-effect="#path-effect80909-0-7"
       inkscape:original-d="m 31.020319,119.20348 c -1.272422,-0.0149 -2.513386,-0.03 -3.770032,-0.0448" />
    <path
       style="opacity:0.99;fill:none;fill-opacity:1;fill-rule:evenodd;stroke:#f65dbb;stroke-width:0.563214;stroke-dasharray:none;stroke-opacity:1"
       d="m 31.750597,121.20958 -4.450582,-0.0445"
       id="path80907-4-7-3"
       inkscape:path-effect="#path-effect80909-0-7-1"
       inkscape:original-d="m 31.750597,121.20958 c -1.502115,-0.0148 -2.967093,-0.0297 -4.450582,-0.0445" />
    <path
       style="opacity:0.99;fill:none;fill-opacity:1;fill-rule:evenodd;stroke:#f65dbb;stroke-width:0.520756;stroke-dasharray:none;stroke-opacity:1"
       d="m 31.17632,131.18977 -3.77003,-0.0448"
       id="path80907-4-8"
       inkscape:path-effect="#path-effect80909-0-5"
       inkscape:original-d="m 31.17632,131.18977 c -1.272423,-0.0149 -2.513387,-0.03 -3.77003,-0.0448" />
    <path
       style="opacity:0.99;fill:none;fill-opacity:1;fill-rule:evenodd;stroke:#94acff;stroke-width:0.520756;stroke-dasharray:none;stroke-opacity:1"
       d="m 31.786455,125.2412 -4.712648,-0.006"
       id="path80911-4"
       inkscape:path-effect="#path-effect80913-8"
       inkscape:original-d="m 31.786455,125.2412 c -1.570921,-0.002 -3.141802,-0.002 -4.712648,-0.006" />
    <path
       style="opacity:0.99;fill:none;fill-opacity:1;fill-rule:evenodd;stroke:#94acff;stroke-width:0.553566;stroke-dasharray:none;stroke-opacity:1"
       d="m 29.672234,130.19309 -5.337906,-0.006"
       id="path80911-4-3"
       inkscape:path-effect="#path-effect80913-8-3"
       inkscape:original-d="m 29.672234,130.19309 c -5.634996,-2.27514 -19.474089,-9.38348 -5.337906,-0.006"
       sodipodi:nodetypes="cc" />
    <path
       style="opacity:0.99;fill:none;fill-opacity:1;fill-rule:evenodd;stroke:#94acff;stroke-width:0.520756;stroke-dasharray:none;stroke-opacity:1"
       d="m 29.411604,120.21308 -4.712649,-0.006"
       id="path80911-4-2"
       inkscape:path-effect="#path-effect80913-8-2"
       inkscape:original-d="m 29.411604,120.21308 c -1.57092,-0.002 -3.141802,-0.002 -4.712649,-0.006" />
    <path
       style="opacity:0.99;fill:none;fill-opacity:1;fill-rule:evenodd;stroke:#f65dbb;stroke-width:0.520756;stroke-dasharray:none;stroke-opacity:1"
       d="m 25.191836,126.08469 3.251638,0.0444"
       id="path80915-9"
       inkscape:path-effect="#path-effect80917-0"
       inkscape:original-d="m 25.191836,126.08469 c 1.099587,8.7e-4 2.167721,0.0296 3.251638,0.0444" />
    <path
       style="opacity:0.99;fill:none;fill-opacity:1;fill-rule:evenodd;stroke:#f65dbb;stroke-width:0.520756;stroke-dasharray:none;stroke-opacity:1"
       d="m 25.341757,124.39198 3.110343,0.002"
       id="path80919-8"
       inkscape:path-effect="#path-effect80921-4"
       inkscape:original-d="m 25.341757,124.39198 c 1.005329,8.8e-4 2.073525,0.002 3.110343,0.002" />
    <path
       style="opacity:0.99;fill:none;fill-opacity:1;fill-rule:evenodd;stroke:#94acff;stroke-width:0.520756;stroke-dasharray:none;stroke-opacity:1"
       d="m 31.984008,115.44234 -4.995403,-0.006"
       id="path80939-7"
       inkscape:path-effect="#path-effect80941-6"
       inkscape:original-d="m 31.984008,115.44234 c -1.64946,-0.002 -3.330307,-0.005 -4.995403,-0.006" />
    <path
       style="opacity:0.99;fill:none;fill-opacity:1;fill-rule:evenodd;stroke:#f65dbb;stroke-width:0.520756;stroke-dasharray:none;stroke-opacity:1"
       d="m 28.73314,134.41211 -3.723511,-0.006"
       id="path80939-7-7"
       inkscape:path-effect="#path-effect80941-6-5"
       inkscape:original-d="m 28.73314,134.41211 c -1.229486,-0.002 -2.482368,-0.005 -3.723511,-0.006"
       inkscape:transform-center-x="0.33970708"
       inkscape:transform-center-y="-11.136847" />
    <path
       style="opacity:0.99;fill:none;fill-opacity:1;fill-rule:evenodd;stroke:#f65dbb;stroke-width:0.520756;stroke-dasharray:none;stroke-opacity:1"
       d="m 25.261028,116.19659 3.48745,-0.0354"
       id="path80943-4"
       inkscape:path-effect="#path-effect80945-1"
       inkscape:original-d="m 25.261028,116.19659 c 1.162418,9.6e-4 2.324929,-0.0236 3.48745,-0.0354" />
    <path
       style="opacity:0.99;fill:none;fill-opacity:1;fill-rule:evenodd;stroke:#94acff;stroke-width:0.520756;stroke-dasharray:none;stroke-opacity:1"
       d="m 28.161489,135.10786 3.487448,-0.0354"
       id="path80943-4-1"
       inkscape:path-effect="#path-effect80945-1-0"
       inkscape:original-d="m 28.161489,135.10786 c 1.162417,8.6e-4 2.324929,-0.0235 3.487448,-0.0354" />
    <path
       style="fill:none;fill-rule:evenodd;stroke:#94acff;stroke-width:1.41449;stroke-dasharray:none;stroke-opacity:1"
       d="m 135.71597,134.30167 c 0.0681,0.0458 0.13824,0.0891 0.2104,0.12927 0.0723,0.0405 0.14625,0.078 0.22213,0.11301 0.0759,0.0351 0.1539,0.0669 0.23349,0.0966 0.0798,0.0295 0.161,0.0563 0.24429,0.08 0.083,0.0239 0.16793,0.0453 0.25447,0.0638 0.0865,0.0182 0.17485,0.0339 0.26472,0.0467 0.0896,0.0116 0.18122,0.0226 0.27408,0.0299 0.0929,0.007 0.18721,0.0105 0.28305,0.0137 0.096,9.3e-4 0.19303,1e-4 0.29157,-0.003 0.0985,-0.003 0.19858,-0.0105 0.29974,-0.0209 0.10109,-0.009 0.20357,-0.0225 0.30702,-0.0377 0.10363,-0.0157 0.20834,-0.0337 0.31388,-0.0545 0.10582,-0.0209 0.21271,-0.0451 0.32048,-0.0712 0.10782,-0.0262 0.21654,-0.0558 0.32618,-0.0878 0.10964,-0.032 0.22012,-0.0668 0.33143,-0.10434 0.11127,-0.0374 0.22334,-0.0777 0.33599,-0.12047 0.11274,-0.043 0.2262,-0.0884 0.34022,-0.13648 0.11383,-0.0482 0.22848,-0.0989 0.34356,-0.15259 0.1151,-0.0536 0.23046,-0.10938 0.34635,-0.16778 0.11583,-0.0585 0.2322,-0.11956 0.34868,-0.18313 0.11638,-0.0636 0.23337,-0.12964 0.35025,-0.19805 0.11693,-0.0685 0.23408,-0.13945 0.35131,-0.21276 0.1173,-0.0733 0.23441,-0.14892 0.35158,-0.22685 0.1171,-0.078 0.23439,-0.15808 0.35152,-0.24059 0.11693,-0.0825 0.23373,-0.16712 0.35039,-0.25395 0.11656,-0.0868 0.233,-0.17585 0.349,-0.26684 0.1162,-0.0913 0.23165,-0.1842 0.34703,-0.27933 0.11528,-0.0952 0.22996,-0.19219 0.34415,-0.29125 0.1142,-0.0988 0.228,-0.20007 0.34101,-0.30278 0.11292,-0.10276 0.22533,-0.20731 0.33683,-0.31355 0.11183,-0.10635 0.22249,-0.21434 0.33256,-0.3239 0.11,-0.10982 0.21926,-0.22105 0.32739,-0.33387 0.10819,-0.11279 0.21546,-0.22707 0.3217,-0.34288 0.10619,-0.11582 0.21135,-0.23293 0.3154,-0.35138 0.10418,-0.11864 0.20698,-0.23844 0.30868,-0.35957 0.10144,-0.12098 0.20203,-0.24322 0.30126,-0.36658 0.0991,-0.12344 0.19692,-0.24805 0.29341,-0.37355 0.0964,-0.12545 0.19133,-0.25207 0.285,-0.37946 0.0934,-0.12756 0.18561,-0.25566 0.27597,-0.38465 0.0907,-0.12911 0.17958,-0.25888 0.26669,-0.38948 0.0873,-0.13054 0.17321,-0.26171 0.25699,-0.39342 0.0839,-0.13169 0.16592,-0.26394 0.24651,-0.39673 0.0803,-0.13263 0.15882,-0.26583 0.23581,-0.39932 0.0767,-0.13335 0.15153,-0.26709 0.22447,-0.40122 0.073,-0.13389 0.14389,-0.26812 0.21305,-0.40231 0.069,-0.13415 0.13604,-0.26863 0.20103,-0.40268 0.0652,-0.13431 0.12786,-0.26863 0.18869,-0.40263 0.0607,-0.13403 0.11966,-0.26793 0.1763,-0.4016 0.0563,-0.13347 0.11092,-0.26688 0.16301,-0.39985 0.0525,-0.13294 0.10236,-0.26559 0.14989,-0.39747 0.0477,-0.13225 0.0933,-0.2636 0.1366,-0.39454 0.0434,-0.1308 0.0841,-0.26113 0.12276,-0.39062 0.0385,-0.12962 0.075,-0.25823 0.10892,-0.38625 0.0339,-0.1278 0.0652,-0.25493 0.0945,-0.38101 0.0292,-0.12611 0.0559,-0.25119 0.0804,-0.37505 0.0244,-0.12413 0.0464,-0.2471 0.0657,-0.36883 0.0195,-0.12175 0.0366,-0.24224 0.0514,-0.36169 0.0146,-0.11917 0.0268,-0.23712 0.0361,-0.35365 0.011,-0.11654 0.0164,-0.23181 0.022,-0.34543 0.004,-0.11381 0.007,-0.22589 0.007,-0.33641 -2e-4,-0.11062 -0.002,-0.21953 -0.007,-0.32683 -0.004,-0.10711 -0.0127,-0.21279 -0.0224,-0.31657 -0.0109,-0.1036 -0.0222,-0.20574 -0.0372,-0.30588 -0.0145,-0.1001 -0.0322,-0.19831 -0.0517,-0.29468 -0.0199,-0.096 -0.0419,-0.19049 -0.0663,-0.28273 -0.0246,-0.0921 -0.0514,-0.18241 -0.0809,-0.27041 -0.0294,-0.0883 -0.061,-0.17402 -0.0951,-0.25772 -0.0341,-0.0838 -0.0705,-0.16519 -0.10929,-0.24459 -0.0388,-0.0791 -0.0799,-0.15609 -0.1233,-0.23066 -0.0432,-0.0746 -0.0891,-0.14683 -0.13678,-0.21684 -0.0479,-0.0697 -0.0982,-0.13719 -0.15044,-0.20226 -0.0525,-0.0649 -0.10691,-0.12742 -0.16355,-0.18743 -0.0568,-0.0601 -0.11566,-0.11751 -0.17667,-0.17222 -0.061,-0.0549 -0.12404,-0.10713 -0.18924,-0.15688 -0.0652,-0.0498 -0.1324,-0.0968 -0.2015,-0.14111 -0.0692,-0.0444 -0.14042,-0.0864 -0.21341,-0.12505 -0.073,-0.0387 -0.14807,-0.0753 -0.22499,-0.10915 -0.0769,-0.0338 -0.15536,-0.0643 -0.23614,-0.0923 -0.0806,-0.0283 -0.16283,-0.0536 -0.24685,-0.0758 -0.084,-0.0226 -0.16975,-0.0423 -0.25721,-0.0596 -0.0874,-0.0171 -0.17648,-0.0313 -0.267,-0.0424 -0.0907,-0.0105 -0.18264,-0.02 -0.27626,-0.0257 -0.0936,-0.004 -0.18886,-0.008 -0.28523,-0.008 -0.0965,9e-5 -0.19448,0.002 -0.29378,0.008 -0.0993,0.004 -0.19983,0.0139 -0.30159,0.0248 -0.10163,0.0105 -0.20466,0.0255 -0.30877,0.042 -0.10418,0.0168 -0.20934,0.0362 -0.31562,0.0586 -0.10636,0.0224 -0.2136,0.0476 -0.32193,0.0753 -0.10818,0.028 -0.21742,0.0585 -0.32754,0.0919 -0.11019,0.0337 -0.22098,0.0696 -0.33259,0.10847 -0.11164,0.0385 -0.22408,0.0803 -0.3372,0.12452 -0.11292,0.0441 -0.22679,0.0913 -0.34098,0.1406 -0.11438,0.0496 -0.22907,0.1017 -0.34432,0.15629 -0.11529,0.0546 -0.23107,0.11207 -0.3471,0.1719 -0.11603,0.06 -0.23239,0.12204 -0.34907,0.18683 -0.11674,0.0647 -0.2335,0.1321 -0.35058,0.20186 -0.11692,0.0696 -0.23409,0.1417 -0.35135,0.21614 -0.11729,0.0745 -0.23443,0.15119 -0.35166,0.23024 -0.11711,0.0788 -0.23428,0.16042 -0.35115,0.24398 -0.1171,0.0837 -0.23374,0.16935 -0.35041,0.25733 -0.11639,0.0878 -0.23253,0.17792 -0.34855,0.27002 -0.11566,0.092 -0.23125,0.18619 -0.34623,0.28242 -0.11492,0.0959 -0.22958,0.19419 -0.34336,0.29406 -0.11401,0.1002 -0.22745,0.20186 -0.34021,0.3056 -0.11257,0.10349 -0.22452,0.20901 -0.33591,0.31621 -0.1111,0.107 -0.22169,0.21599 -0.33118,0.3265 -0.10965,0.11038 -0.2182,0.22237 -0.32591,0.33604 -0.10783,0.11347 -0.21452,0.22854 -0.32019,0.34499 -0.10564,0.11642 -0.21042,0.23447 -0.31377,0.35364 -0.10345,0.11902 -0.20575,0.23955 -0.3069,0.36135 -0.1009,0.12163 -0.20094,0.24449 -0.29931,0.36843 -0.0985,0.12385 -0.19557,0.24896 -0.29132,0.37495 -0.096,0.12596 -0.19011,0.25293 -0.28291,0.38088 -0.0927,0.1277 -0.18393,0.25648 -0.27361,0.38597 -0.0899,0.12937 -0.17776,0.25971 -0.26433,0.3905 -0.0865,0.13067 -0.1712,0.26234 -0.25431,0.39432 -0.0828,0.13197 -0.16428,0.26447 -0.24387,0.39735 -0.0793,0.13293 -0.15718,0.26637 -0.23288,0.3999 -0.0759,0.1336 -0.14989,0.26763 -0.22183,0.40154 -0.072,0.13416 -0.14206,0.2683 -0.21012,0.40258 -0.0681,0.13429 -0.13405,0.26849 -0.19795,0.40273 -0.0637,0.13416 -0.12603,0.26853 -0.18561,0.40244 -0.0597,0.13389 -0.11747,0.26769 -0.17302,0.40118 -0.0555,0.13359 -0.10873,0.26664 -0.15991,0.39945 -0.0512,0.13278 -0.1,0.26503 -0.14661,0.39687 -0.0465,0.13155 -0.0909,0.26284 -0.13296,0.39345 -0.0421,0.13041 -0.0819,0.26036 -0.1193,0.38953 -0.0373,0.12912 -0.0725,0.25751 -0.10527,0.38493 -0.0328,0.12753 -0.0631,0.25417 -0.0908,0.37968 -0.0283,0.1257 -0.0536,0.25023 -0.0769,0.37371 -0.0233,0.12364 -0.0439,0.24592 -0.0621,0.367 -0.0182,0.12112 -0.0342,0.24119 -0.0475,0.35968 -0.0128,0.11861 -0.0242,0.23599 -0.0329,0.35172 -0.007,0.11584 -0.0146,0.23039 -0.0182,0.34332 -0.004,0.11301 -0.004,0.22416 -0.004,0.33403 9e-4,0.10972 0.004,0.21799 0.011,0.32434 0.006,0.10644 0.0145,0.21106 0.0261,0.31399 0.011,0.10276 0.0246,0.20396 0.0408,0.30305 0.0164,0.099 0.0344,0.1964 0.0553,0.29162 0.021,0.0954 0.0443,0.18849 0.07,0.27969 0.0255,0.0912 0.054,0.18043 0.0843,0.26743 0.0304,0.0871 0.0631,0.17187 0.0987,0.2544 0.035,0.0828 0.0726,0.16303 0.11256,0.2412 0.0399,0.078 0.0819,0.15388 0.12677,0.22723 0.0445,0.0735 0.091,0.14459 0.14023,0.21315 0.049,0.0686 0.10018,0.13496 0.15391,0.19856 0.0536,0.0639 0.10891,0.12506 0.16683,0.18365 0.0577,0.0587 0.11784,0.11487 0.17976,0.16855 0.0621,0.0536 0.12622,0.10476 0.19224,0.15289 0.0663,0.0481 0.13442,0.094 0.20452,0.13721 0.07,0.0432 0.14224,0.0836 0.21643,0.12111 0.0741,0.0376 0.14989,0.0725 0.22771,0.10486 0.078,0.0325 0.15736,0.062 0.23892,0.0887 0.0811,0.0268 0.16447,0.0504 0.24945,0.0721 0.0851,0.0215 0.17139,0.0396 0.25963,0.0552 0.0882,0.0157 0.17794,0.0282 0.26933,0.0383 0.0914,0.009 0.18423,0.0172 0.27872,0.0215 0.0943,0.003 0.19014,0.004 0.28738,0.003 0.0973,-9.3e-4 0.19579,-0.004 0.29567,-0.0118 0.1,-0.007 0.20106,-0.017 0.30349,-0.0295 0.10236,-0.0138 0.20589,-0.0277 0.31053,-0.0461 0.10473,-0.0182 0.21038,-0.0393 0.31724,-0.0628 0.10673,-0.0238 0.21463,-0.0504 0.32328,-0.0796 0.10873,-0.0293 0.21847,-0.0614 0.329,-0.096 0.11056,-0.0349 0.22175,-0.0723 0.33378,-0.11267 0.11201,-0.0403 0.22485,-0.083 0.33825,-0.12871 0.11329,-0.0453 0.22741,-0.0936 0.34188,-0.14458 0.11456,-0.0504 0.22956,-0.10412 0.3451,-0.16009 0.11547,-0.0559 0.23127,-0.1145 0.3476,-0.17554 0.1162,-0.0613 0.23267,-0.12467 0.34955,-0.19079 0.11674,-0.0659 0.23356,-0.1343 0.35076,-0.2054 0.11711,-0.0709 0.23432,-0.14416 0.3516,-0.21973 0.11711,-0.0757 0.23432,-0.15356 0.35154,-0.23376 0.11711,-0.08 0.23423,-0.16275 0.35097,-0.24727 0.11692,-0.0848 0.2335,-0.1715 0.34991,-0.2605 0.11638,-0.0891 0.23238,-0.18001 0.34801,-0.27321 0.11584,-0.0931 0.23104,-0.18837 0.34573,-0.28536 0.11473,-0.0971 0.22904,-0.19625 0.34272,-0.29708 0.11347,-0.10096 0.22649,-0.20362 0.33883,-0.30819 0.11255,-0.10465 0.22412,-0.21097 0.33497,-0.31883 0.11074,-0.10792 0.22089,-0.2177 0.32998,-0.32905 0.10911,-0.11084 0.2174,-0.22404 0.32456,-0.33836 0.10728,-0.11428 0.21353,-0.23006 0.31868,-0.34716 0.10508,-0.11726 0.20918,-0.23586 0.31212,-0.35558 0.10272,-0.11981 0.20449,-0.24096 0.30496,-0.36323 0.10054,-0.12216 0.19958,-0.24571 0.29742,-0.37001 0.0978,-0.12451 0.19415,-0.25016 0.28924,-0.37662 0.0949,-0.12661 0.18851,-0.25397 0.28056,-0.38216 0.092,-0.12819 0.18254,-0.25741 0.27139,-0.3872 0.0891,-0.12988 0.1763,-0.26045 0.2618,-0.39157 0.0856,-0.13095 0.16974,-0.26296 0.25183,-0.39518 0.0821,-0.13225 0.16246,-0.26483 0.2411,-0.39807 0.0787,-0.13321 0.15536,-0.26655 0.23018,-0.40022 0.0748,-0.13376 0.14789,-0.2678 0.21879,-0.4019 0.0711,-0.13418 0.14024,-0.2684 0.20716,-0.40255 0.0668,-0.13441 0.13204,-0.26869 0.19501,-0.40299 0.0629,-0.13404 0.12385,-0.26821 0.1824,-0.40201 0.0588,-0.1339 0.11548,-0.26758 0.16975,-0.40086 0.0544,-0.13335 0.10673,-0.26628 0.15663,-0.39879 0.0501,-0.13262 0.0978,-0.26457 0.14334,-0.39619 0.0456,-0.13141 0.0887,-0.26241 0.12968,-0.39255 0.0408,-0.13029 0.0796,-0.25971 0.11565,-0.3885 0.0364,-0.12873 0.07,-0.25661 0.10163,-0.38363 0.0315,-0.12702 0.0607,-0.25312 0.0876,-0.37825 0.027,-0.12506 0.0512,-0.24909 0.073,-0.372 0.022,-0.12295 0.0417,-0.24483 0.0585,-0.36536 0.0164,-0.12046 0.0317,-0.23973 0.0439,-0.35776 0.0127,-0.11782 0.0217,-0.23456 0.0296,-0.34966 0.007,-0.11523 0.0127,-0.22891 0.0146,-0.34098 0.002,-0.11208 0.002,-0.22265 -5.3e-4,-0.33174 -0.002,-0.10881 -0.007,-0.21613 -0.0145,-0.32164 -0.007,-0.10576 -0.0182,-0.20935 -0.0299,-0.31135 -0.0127,-0.10181 -0.0272,-0.2021 -0.0443,-0.30024 -0.0164,-0.0981 -0.0372,-0.1945 -0.059,-0.28874 -0.022,-0.0942 -0.0466,-0.18661 -0.0737,-0.27669 -0.027,-0.0903 -0.0561,-0.17823 -0.0878,-0.26428 -0.0317,-0.0859 -0.0659,-0.16959 -0.10218,-0.25107 -0.0365,-0.0815 -0.0752,-0.16074 -0.11638,-0.23767 -0.041,-0.0769 -0.0845,-0.15156 -0.13004,-0.22382 -0.0456,-0.0723 -0.0934,-0.14211 -0.14371,-0.20946 -0.0499,-0.0676 -0.10254,-0.13235 -0.15699,-0.19495 -0.0545,-0.0627 -0.11147,-0.12242 -0.17011,-0.1799 -0.0588,-0.0575 -0.11984,-0.11229 -0.18295,-0.16466 -0.0632,-0.0524 -0.12823,-0.10181 -0.19535,-0.14899 -0.067,-0.0471 -0.13642,-0.0915 -0.20751,-0.1332 -0.0711,-0.0418 -0.14424,-0.0805 -0.21927,-0.11714 -0.075,-0.0365 -0.15171,-0.07 -0.23046,-0.10108 -0.0787,-0.0313 -0.15937,-0.059 -0.24153,-0.0842 -0.0823,-0.0255 -0.16628,-0.0478 -0.25216,-0.0677 -0.0856,-0.0198 -0.17303,-0.0368 -0.26223,-0.051 -0.0889,-0.0143 -0.1794,-0.0256 -0.27165,-0.0341 -0.0923,-0.008 -0.18579,-0.014 -0.28091,-0.0171 -0.0951,-0.002 -0.19158,-0.002 -0.28952,-3e-4 -0.098,0.002 -0.19713,0.008 -0.29772,0.0165 -0.10036,0.007 -0.20236,0.0199 -0.30512,0.0338 -0.10291,0.0138 -0.20732,0.0311 -0.31241,0.05 -0.10527,0.0197 -0.21155,0.0421 -0.31887,0.0676 -0.10728,0.0248 -0.21567,0.0527 -0.32476,0.0838 -0.10928,0.0307 -0.21932,0.064 -0.33019,0.1002 -0.11074,0.0361 -0.22245,0.075 -0.33498,0.11655 -0.11237,0.0415 -0.22558,0.0858 -0.33914,0.13265 -0.11365,0.0467 -0.22787,0.096 -0.34264,0.14833 -0.11475,0.0521 -0.23017,0.10689 -0.34589,0.16412 -0.11566,0.0573 -0.23169,0.11691 -0.34819,0.17939 -0.11619,0.0625 -0.2329,0.12715 -0.3499,0.1943 -0.11693,0.0673 -0.2339,0.13705 -0.35097,0.209 -0.11729,0.0722 -0.23449,0.14659 -0.35164,0.22335 -0.11711,0.0769 -0.23437,0.15584 -0.35147,0.23723 -0.11711,0.0813 -0.23412,0.16485 -0.35088,0.25075 -0.11675,0.0858 -0.23327,0.17372 -0.34938,0.26373 -0.11639,0.0902 -0.23216,0.18215 -0.34754,0.27615 -0.11548,0.0942 -0.23049,0.1904 -0.34494,0.28842 -0.11456,0.0979 -0.22854,0.19801 -0.34194,0.29988 -0.11328,0.1017 -0.22601,0.20542 -0.33791,0.31084 -0.112,0.1054 -0.22331,0.21263 -0.33362,0.32146 -0.11056,0.10891 -0.22009,0.21938 -0.32877,0.33126 -0.10873,0.11218 -0.21654,0.22576 -0.32319,0.34072 -0.10673,0.11525 -0.21244,0.23164 -0.31704,0.3494 -0.10454,0.11786 -0.20806,0.23717 -0.3105,0.35754 -0.10235,0.12048 -0.20323,0.24209 -0.30313,0.365 -0.0996,0.12282 -0.19805,0.24675 -0.29524,0.37176 -0.0973,0.12493 -0.19289,0.25103 -0.28711,0.37805 -0.0943,0.12691 -0.18712,0.25491 -0.27844,0.38358 -0.0911,0.12886 -0.18104,0.25815 -0.2689,0.38825 -0.0884,0.13017 -0.17466,0.26103 -0.2595,0.39263 -0.0845,0.13141 -0.16774,0.26336 -0.24899,0.39589 -0.0812,0.13252 -0.16082,0.26538 -0.23844,0.39869 -0.0776,0.13319 -0.15373,0.26682 -0.22758,0.40086 -0.0741,0.13376 -0.14571,0.26779 -0.21597,0.40207 -0.0698,0.13415 -0.13788,0.26845 -0.20397,0.4027 -0.0661,0.1343 -0.13004,0.26868 -0.19191,0.40278 -0.0619,0.13417 -0.12167,0.26801 -0.17922,0.4018 -0.0577,0.13375 -0.1131,0.26718 -0.16646,0.40044 -0.0534,0.13307 -0.10437,0.26589 -0.15318,0.39817 -0.049,0.13225 -0.0956,0.26402 -0.13988,0.3951 -0.0443,0.13131 -0.0864,0.26197 -0.12603,0.39182 -0.0395,0.1299 -0.077,0.25895 -0.11237,0.3873 -0.035,0.12834 -0.0677,0.25583 -0.0984,0.38247 -0.0305,0.12652 -0.0585,0.2522 -0.084,0.37671 -0.0255,0.12454 -0.0486,0.24813 -0.0696,0.37045 -0.0206,0.12229 -0.0389,0.2434 -0.055,0.36322 -0.0164,0.12022 -0.0292,0.23862 -0.04,0.35595 -0.011,0.11724 -0.0199,0.23316 -0.0255,0.34754 -0.006,0.1145 -0.011,0.22741 -0.011,0.3386 -8.9e-4,0.11151 6e-4,0.22113 0.004,0.32944 0.004,0.10813 0.011,0.21463 0.0186,0.31924 0.009,0.10477 0.0201,0.20757 0.0333,0.30856 0.0145,0.10095 0.0299,0.20024 0.0482,0.29745 0.0184,0.0972 0.0393,0.19257 0.0629,0.2857 0.0233,0.0934 0.049,0.18449 0.077,0.27369 0.0284,0.0892 0.0584,0.17613 0.0914,0.26099 0.0329,0.0848 0.0679,0.16736 0.10582,0.24771 0.0377,0.0803 0.0774,0.15857 0.11965,0.23425 0.0423,0.0759 0.0867,0.14926 0.13333,0.2203 0.0469,0.0712 0.096,0.13974 0.14716,0.20584 0.0512,0.0662 0.10472,0.13004 0.16028,0.19125 0.0555,0.0613 0.11328,0.12006 0.1732,0.17615 0.0599,0.0563 0.12203,0.10982 0.18607,0.16078 0.0641,0.0507 0.1304,0.0994 0.19852,0.14512"
       title="cos(x)"
       id="path114844-9-7"
       inkscape:transform-center-x="0.2119573"
       inkscape:transform-center-y="10.422361" />
    <path
       style="fill:none;fill-rule:evenodd;stroke:#f65dbb;stroke-width:1.42447;stroke-dasharray:none;stroke-opacity:1"
       d="m 150.35887,133.56119 c 0.052,-0.0677 0.10212,-0.13765 0.1497,-0.21017 0.0478,-0.0725 0.093,-0.14744 0.13628,-0.22454 0.0433,-0.0771 0.0838,-0.15679 0.12234,-0.23851 0.0386,-0.0818 0.0747,-0.16561 0.10852,-0.25182 0.0338,-0.0861 0.0654,-0.17421 0.0944,-0.26457 0.0291,-0.0904 0.0556,-0.18284 0.0801,-0.27736 0.0242,-0.0944 0.0462,-0.19087 0.0657,-0.28925 0.0196,-0.0983 0.0366,-0.19858 0.0511,-0.30068 0.0146,-0.10215 0.0267,-0.20608 0.0364,-0.31173 0.0111,-0.10577 0.0169,-0.21321 0.0219,-0.32231 0.004,-0.10899 0.005,-0.21976 0.005,-0.33192 -3e-4,-0.11232 -0.002,-0.22616 -0.006,-0.34115 -0.004,-0.11529 -0.0126,-0.23208 -0.0224,-0.35002 -0.0111,-0.1179 -0.0224,-0.23738 -0.0372,-0.35803 -0.0148,-0.12065 -0.0324,-0.24243 -0.0518,-0.3654 -0.0198,-0.12301 -0.0417,-0.24706 -0.0665,-0.37212 -0.0247,-0.12523 -0.0515,-0.25136 -0.0808,-0.37841 -0.0293,-0.12691 -0.0609,-0.25492 -0.0953,-0.38374 -0.0342,-0.12878 -0.0704,-0.25823 -0.10918,-0.38843 -0.0388,-0.13021 -0.0797,-0.26121 -0.12322,-0.39265 -0.0435,-0.13132 -0.0892,-0.26358 -0.13695,-0.39597 -0.0481,-0.13256 -0.0981,-0.26544 -0.15051,-0.39876 -0.0526,-0.13333 -0.10688,-0.26679 -0.16371,-0.40057 -0.0567,-0.13378 -0.11542,-0.26785 -0.17652,-0.40207 -0.061,-0.13393 -0.1241,-0.26814 -0.18919,-0.40233 -0.0651,-0.13419 -0.13234,-0.26836 -0.2014,-0.40234 -0.0692,-0.13416 -0.14034,-0.26784 -0.21338,-0.40161 -0.0731,-0.13363 -0.14802,-0.26691 -0.2249,-0.39983 -0.0769,-0.13296 -0.15566,-0.26572 -0.23612,-0.39777 -0.0804,-0.13209 -0.1628,-0.26366 -0.24678,-0.39454 -0.084,-0.13122 -0.16977,-0.26143 -0.25704,-0.39112 -0.0875,-0.1297 -0.17645,-0.25871 -0.26709,-0.38673 -0.0905,-0.12813 -0.18258,-0.25531 -0.27626,-0.38161 -0.0937,-0.12631 -0.18866,-0.25161 -0.28507,-0.37588 -0.0965,-0.12443 -0.19445,-0.24754 -0.2937,-0.36961 -0.099,-0.1219 -0.19955,-0.24277 -0.30121,-0.36245 -0.10181,-0.11954 -0.20481,-0.23788 -0.30887,-0.35486 -0.10411,-0.11696 -0.20932,-0.23237 -0.31554,-0.34657 -0.10632,-0.11398 -0.21347,-0.22662 -0.32162,-0.33747 -0.1082,-0.11113 -0.21734,-0.22051 -0.32741,-0.32813 -0.10995,-0.10769 -0.22088,-0.21397 -0.33248,-0.31818 -0.11156,-0.10424 -0.22387,-0.20665 -0.33692,-0.30737 -0.11311,-0.10039 -0.22668,-0.19929 -0.34092,-0.29623 -0.11426,-0.0967 -0.22883,-0.19154 -0.34419,-0.28438 -0.11508,-0.0929 -0.23086,-0.18361 -0.34681,-0.27229 -0.11601,-0.0887 -0.23244,-0.17515 -0.34879,-0.2595 -0.1166,-0.0843 -0.23356,-0.16649 -0.35049,-0.24632 -0.11696,-0.0799 -0.234,-0.15758 -0.35119,-0.23291 -0.11708,-0.075 -0.23422,-0.1482 -0.35138,-0.21866 -0.1171,-0.0707 -0.23424,-0.13875 -0.35098,-0.20446 -0.11695,-0.0657 -0.23362,-0.12894 -0.35004,-0.18972 -0.11646,-0.0609 -0.2326,-0.11891 -0.34831,-0.17459 -0.1159,-0.0555 -0.23118,-0.10876 -0.34615,-0.15925 -0.11485,-0.0505 -0.2294,-0.0979 -0.34328,-0.14334 -0.11377,-0.0452 -0.22711,-0.0879 -0.33957,-0.1276 -0.11274,-0.0398 -0.22461,-0.077 -0.33576,-0.1115 -0.11122,-0.0342 -0.22145,-0.066 -0.33112,-0.0951 -0.10952,-0.0291 -0.21797,-0.055 -0.32563,-0.0781 -0.10775,-0.0235 -0.21437,-0.0441 -0.31995,-0.062 -0.10577,-0.0179 -0.2102,-0.033 -0.31356,-0.0453 -0.10349,-0.0125 -0.20559,-0.0214 -0.30658,-0.0282 -0.10099,-0.006 -0.20069,-0.009 -0.29909,-0.0107 -0.0984,-9.2e-4 -0.19543,9.5e-4 -0.2911,0.006 -0.0957,0.004 -0.18983,0.0125 -0.28263,0.0225 -0.0925,0.009 -0.18388,0.0233 -0.27352,0.0393 -0.0896,0.016 -0.17761,0.0345 -0.26393,0.0561 -0.0863,0.0213 -0.1711,0.0457 -0.25405,0.0728 -0.083,0.0272 -0.16416,0.0568 -0.24374,0.0893 -0.0793,0.0324 -0.15692,0.0678 -0.23263,0.10587 -0.0757,0.0378 -0.14958,0.0788 -0.22161,0.12191 -0.0718,0.0434 -0.14174,0.0894 -0.20979,0.13797 -0.0677,0.0488 -0.13385,0.0999 -0.1978,0.15377 -0.064,0.0541 -0.12568,0.11043 -0.18534,0.16932 -0.0597,0.059 -0.11719,0.12052 -0.17271,0.1845 -0.0554,0.0641 -0.10864,0.13046 -0.1597,0.19941 -0.051,0.0688 -0.0998,0.14018 -0.14642,0.21383 -0.0465,0.0737 -0.0907,0.14969 -0.13288,0.228 -0.0422,0.0783 -0.0815,0.15875 -0.11895,0.24178 -0.0373,0.083 -0.0724,0.16778 -0.10485,0.25507 -0.0328,0.087 -0.063,0.17652 -0.0909,0.26793 -0.0277,0.0915 -0.0536,0.18487 -0.0764,0.28029 -0.0231,0.0954 -0.0438,0.19274 -0.0621,0.29204 -0.0184,0.0994 -0.0342,0.20062 -0.0475,0.30349 -0.0134,0.10331 -0.0243,0.20791 -0.0327,0.31451 -0.008,0.10651 -0.0146,0.21492 -0.0182,0.32475 -0.003,0.10982 -0.004,0.22132 -0.002,0.33427 9.3e-4,0.11291 0.004,0.22752 0.0117,0.3435 0.005,0.11589 0.0148,0.23329 0.026,0.35203 0.0117,0.1186 0.0249,0.23865 0.0408,0.3599 0.016,0.12128 0.0349,0.24366 0.0558,0.36715 0.0208,0.12338 0.0444,0.24817 0.07,0.37382 0.0257,0.12553 0.054,0.25227 0.0844,0.37965 0.0305,0.12757 0.0636,0.25589 0.0987,0.38499 0.0353,0.12914 0.073,0.2592 0.11285,0.38971 0.04,0.13054 0.082,0.26169 0.12664,0.39345 0.0446,0.1318 0.0912,0.26403 0.14043,0.39675 0.049,0.13273 0.10016,0.26573 0.15367,0.39919 0.0535,0.13347 0.10907,0.26712 0.16687,0.40102 0.0576,0.13393 0.1177,0.26801 0.17974,0.40208 0.0623,0.13437 0.12615,0.26841 0.19236,0.40275 0.0661,0.13405 0.13431,0.26805 0.20446,0.40217 0.07,0.13381 0.14221,0.26762 0.21635,0.40111 0.0739,0.13342 0.14993,0.26672 0.22764,0.39931 0.0779,0.13291 0.15742,0.26533 0.23888,0.39726 0.0812,0.13172 0.16448,0.26295 0.24937,0.39383 0.0848,0.13057 0.17142,0.26073 0.25966,0.38994 0.088,0.12935 0.17786,0.25769 0.26929,0.38537 0.0912,0.12782 0.18413,0.25446 0.27847,0.38027 0.0943,0.12578 0.19023,0.25076 0.2874,0.37436 0.097,0.12375 0.19567,0.24632 0.2956,0.3679 0.0998,0.12139 0.20093,0.24175 0.30323,0.3606 0.10212,0.11903 0.20586,0.23652 0.31043,0.35279 0.10454,0.11636 0.21032,0.23113 0.31717,0.34448 0.10665,0.11314 0.21449,0.22494 0.32317,0.33512 0.10853,0.11029 0.21833,0.2188 0.32871,0.32567 0.1103,0.10699 0.22173,0.21212 0.33367,0.31545 0.11191,0.10331 0.22463,0.20495 0.33792,0.30464 0.11331,0.0995 0.2274,0.19756 0.34179,0.29317 0.11449,0.0959 0.22959,0.1898 0.34492,0.2816 0.11552,0.0918 0.23127,0.18153 0.34744,0.26917 0.11623,0.0877 0.23257,0.17303 0.3493,0.25622 0.1167,0.0833 0.2337,0.16438 0.35068,0.24302 0.11695,0.0787 0.2341,0.15517 0.35126,0.2294 0.1172,0.0743 0.23432,0.14581 0.35146,0.2152 0.11707,0.0694 0.23406,0.13628 0.35086,0.20076 0.11659,0.0642 0.2332,0.1265 0.34957,0.18584 0.11622,0.0595 0.23215,0.11648 0.34778,0.1707 0.11553,0.0545 0.23071,0.10631 0.34537,0.15533 0.11485,0.0494 0.229,0.0957 0.3425,0.13941 0.11367,0.0442 0.22655,0.0849 0.33881,0.12376 0.11239,0.0386 0.22386,0.0743 0.33456,0.10732 0.11076,0.033 0.22077,0.0634 0.32975,0.0909 0.10885,0.0276 0.21728,0.0523 0.32433,0.0742 0.10732,0.0217 0.21337,0.0413 0.31846,0.0577 0.10506,0.0166 0.20893,0.0299 0.31183,0.041 0.10264,0.0106 0.20452,0.0188 0.30477,0.0241 0.10037,0.004 0.19941,0.007 0.2972,0.006 0.0976,-2.5e-4 0.19405,-0.003 0.28895,-0.009 0.095,-0.006 0.18837,-0.0149 0.28026,-0.0267 0.092,-0.0107 0.18239,-0.0263 0.27117,-0.0436 0.0888,-0.0171 0.17612,-0.0374 0.26167,-0.0604 0.0855,-0.0226 0.16941,-0.0485 0.25145,-0.0771 0.0821,-0.0283 0.16243,-0.0594 0.241,-0.0933 0.0783,-0.034 0.15521,-0.0705 0.2299,-0.10996 0.0747,-0.0392 0.14775,-0.0812 0.21861,-0.12596 0.071,-0.0446 0.14001,-0.092 0.20682,-0.14202 0.067,-0.0499 0.13199,-0.10246 0.19468,-0.1577 0.0628,-0.0552 0.12373,-0.11291 0.18238,-0.1731 0.0588,-0.0603 0.11517,-0.12303 0.16943,-0.18816 0.0543,-0.0654 0.10632,-0.13303 0.1564,-0.20304 0.0502,-0.0698 0.0976,-0.14261 0.14307,-0.21749 0.0455,-0.0749 0.0886,-0.15198 0.12934,-0.23143 0.0411,-0.0794 0.0795,-0.16112 0.11577,-0.24517 0.0363,-0.0837 0.0699,-0.16993 0.10161,-0.25826 0.0316,-0.0883 0.0607,-0.17854 0.0873,-0.27101 0.0269,-0.0923 0.0511,-0.18687 0.073,-0.28324 0.0221,-0.0964 0.0412,-0.19475 0.0583,-0.29515 0.017,-0.10018 0.0319,-0.20234 0.0438,-0.30628 0.0124,-0.10404 0.0219,-0.20961 0.0291,-0.31699 0.006,-0.10745 0.0117,-0.21653 0.0143,-0.32729 9.5e-4,-0.11065 0.002,-0.22282 -2.9e-4,-0.33663 -0.002,-0.11374 -0.006,-0.2289 -0.015,-0.34564 -0.006,-0.11659 -0.0178,-0.23475 -0.03,-0.35396 -0.0125,-0.11942 -0.0273,-0.24006 -0.0446,-0.36194 -0.0173,-0.12177 -0.037,-0.24475 -0.0593,-0.36884 -0.0222,-0.12414 -0.0468,-0.2493 -0.0736,-0.37542 -0.0268,-0.12597 -0.0564,-0.25322 -0.088,-0.38108 -0.0316,-0.12786 -0.0658,-0.25666 -0.10212,-0.38624 -0.0364,-0.12941 -0.0751,-0.25964 -0.11622,-0.39063 -0.0412,-0.13086 -0.0846,-0.26232 -0.13026,-0.39442 -0.0456,-0.1319 -0.0935,-0.2643 -0.14373,-0.39732 -0.0501,-0.13287 -0.10254,-0.26618 -0.15701,-0.39983 -0.0547,-0.13348 -0.11135,-0.26725 -0.17012,-0.40132 -0.059,-0.13393 -0.11997,-0.26816 -0.18287,-0.40221 -0.063,-0.13423 -0.1282,-0.2684 -0.1954,-0.40258 -0.0671,-0.13416 -0.13628,-0.26818 -0.20753,-0.402 -0.0712,-0.13397 -0.14426,-0.26758 -0.21915,-0.40086 -0.0749,-0.1333 -0.15193,-0.26639 -0.23054,-0.39896 -0.0788,-0.13244 -0.15918,-0.26451 -0.2415,-0.39609 -0.0822,-0.13169 -0.16636,-0.26277 -0.25197,-0.39313 -0.0857,-0.13022 -0.17312,-0.26007 -0.26216,-0.38894 -0.0889,-0.12882 -0.17956,-0.25701 -0.27169,-0.38418 -0.0919,-0.1273 -0.18568,-0.25362 -0.2807,-0.37889 -0.095,-0.12529 -0.19169,-0.24959 -0.28944,-0.37285 -0.0979,-0.12301 -0.19713,-0.24516 -0.2976,-0.36602 -0.10037,-0.12091 -0.20226,-0.24046 -0.30501,-0.35873 -0.10305,-0.11824 -0.20717,-0.23518 -0.31226,-0.35078 -0.10524,-0.1154 -0.21155,-0.22955 -0.31871,-0.34208 -0.10731,-0.11258 -0.21551,-0.22359 -0.32461,-0.33289 -0.1093,-0.10946 -0.21921,-0.21727 -0.33009,-0.32314 -0.11074,-0.10619 -0.22243,-0.21042 -0.33478,-0.31286 -0.11236,-0.10248 -0.22522,-0.20304 -0.33897,-0.30177 -0.11368,-0.099 -0.22783,-0.19547 -0.34249,-0.29034 -0.11472,-0.0949 -0.23001,-0.18776 -0.34563,-0.27837 -0.11576,-0.091 -0.23162,-0.17961 -0.34784,-0.26604 -0.11647,-0.0864 -0.23302,-0.17099 -0.34993,-0.25311 -0.1167,-0.0822 -0.23372,-0.1621 -0.35073,-0.23953 -0.11709,-0.0778 -0.23429,-0.15308 -0.35143,-0.2258 -0.1172,-0.0729 -0.23427,-0.14364 -0.35128,-0.21165 -0.11708,-0.0683 -0.23389,-0.13385 -0.35065,-0.19723 -0.11659,-0.0632 -0.23318,-0.1239 -0.3492,-0.18216 -0.11623,-0.0581 -0.23186,-0.11374 -0.34731,-0.16682 -0.1153,-0.0532 -0.23026,-0.1034 -0.34468,-0.15129 -0.11448,-0.0477 -0.2283,-0.0932 -0.34159,-0.13563 -0.11331,-0.0425 -0.22584,-0.0825 -0.33773,-0.11952 -0.11181,-0.0372 -0.2232,-0.0716 -0.33351,-0.1033 -0.1103,-0.0317 -0.21983,-0.0605 -0.32846,-0.0868 -0.1084,-0.0262 -0.21632,-0.0494 -0.32287,-0.0703 -0.10663,-0.0207 -0.21236,-0.0384 -0.31684,-0.0537 -0.10442,-0.0149 -0.20783,-0.0273 -0.31017,-0.0365 -0.10203,-0.009 -0.20316,-0.0161 -0.30283,-0.02 -0.0998,-0.003 -0.19815,-0.004 -0.29519,-0.002 -0.097,0.002 -0.19269,0.006 -0.28685,0.0138 -0.0942,0.007 -0.18698,0.0179 -0.27813,0.031 -0.091,0.0129 -0.18088,0.0288 -0.26881,0.0476 -0.088,0.0186 -0.17436,0.0402 -0.25919,0.0643 -0.0847,0.0242 -0.16759,0.0514 -0.24882,0.0811 -0.0811,0.0298 -0.16064,0.0624 -0.23825,0.0975 -0.0777,0.0351 -0.15329,0.0734 -0.22716,0.11399 -0.0738,0.0408 -0.14575,0.0839 -0.21563,0.13001 -0.0699,0.0458 -0.13792,0.0948 -0.20386,0.14578 -0.066,0.0514 -0.12983,0.10534 -0.19166,0.16157 -0.0618,0.0565 -0.1216,0.11541 -0.17912,0.17693 -0.0576,0.0616 -0.11296,0.12549 -0.16622,0.19193 -0.0534,0.0664 -0.10423,0.13537 -0.15314,0.20667 -0.0488,0.0712 -0.0953,0.14496 -0.13967,0.221 -0.0446,0.076 -0.0862,0.15424 -0.12606,0.2348 -0.04,0.0805 -0.077,0.16349 -0.11205,0.24842 -0.0351,0.0851 -0.0676,0.17223 -0.098,0.26163 -0.0303,0.0892 -0.058,0.18069 -0.0835,0.27427 -0.0255,0.0933 -0.0486,0.18872 -0.0694,0.28616 -0.0206,0.0973 -0.0388,0.19676 -0.0547,0.29792 -0.0157,0.10121 -0.0294,0.2042 -0.0401,0.30906 -0.0117,0.10471 -0.0193,0.21139 -0.0257,0.31965 -0.005,0.10805 -0.008,0.21824 -0.0111,0.32949 -9.3e-4,0.11148 2.8e-4,0.22476 0.004,0.33913 0.003,0.11458 0.0111,0.2305 0.0192,0.34791 0.008,0.11731 0.0197,0.23609 0.0338,0.356 0.0137,0.12003 0.0297,0.24126 0.0483,0.36364 0.0186,0.1224 0.0394,0.24586 0.0628,0.3706 0.0233,0.12452 0.049,0.25036 0.0773,0.3768 0.0282,0.12661 0.0587,0.25401 0.0914,0.38235 0.0329,0.12832 0.0682,0.25759 0.10587,0.3875 0.0374,0.12988 0.0776,0.2604 0.11985,0.39171 0.0422,0.13102 0.0867,0.26277 0.13346,0.39517 0.0468,0.13224 0.096,0.26496 0.14707,0.39797 0.0512,0.13317 0.10474,0.26665 0.16041,0.40027 0.0557,0.13363 0.11345,0.26757 0.17337,0.40164 0.0599,0.13409 0.12184,0.26829 0.18615,0.4025 0.0639,0.13419 0.13027,0.26838 0.19846,0.40241 0.0679,0.13413 0.13832,0.26812 0.21031,0.40175 0.072,0.13381 0.14627,0.26727 0.22216,0.40038 0.0757,0.13326 0.15366,0.26605 0.23328,0.39844 0.0794,0.13226 0.16093,0.26417 0.24411,0.39539 0.0832,0.13125 0.16803,0.2621 0.25459,0.39199 0.0865,0.13019 0.17478,0.25939 0.26443,0.38787 0.0899,0.12853 0.18126,0.25634 0.27406,0.38299 0.0929,0.12682 0.18731,0.25261 0.283,0.37741 0.0957,0.12477 0.19308,0.24853 0.29153,0.37129 0.0985,0.12264 0.19834,0.24397 0.29952,0.36429 0.10108,0.12004 0.2034,0.23895 0.30694,0.3566 0.10349,0.11778 0.20811,0.23395 0.31391,0.34867 0.10577,0.11481 0.21253,0.22819 0.32027,0.34001 0.10786,0.11173 0.2164,0.22205 0.32599,0.33036 0.10962,0.10851 0.21996,0.21552 0.33134,0.32075 0.11122,0.10502 0.22316,0.20834 0.33584,0.30996 0.11273,0.10161 0.22598,0.20131 0.33994,0.29899 0.11378,0.0977 0.22831,0.19373 0.34344,0.28761 0.11484,0.094 0.2303,0.18549 0.34616,0.2754 0.11591,0.0896 0.23201,0.17721 0.34843,0.26263 0.11647,0.0854 0.2333,0.16871 0.35017,0.24978 0.11684,0.0811 0.23382,0.15969 0.35096,0.2362 0.11721,0.0764 0.23425,0.15052 0.3515,0.22234 0.11695,0.0719 0.23421,0.14104 0.35116,0.20798 0.11683,0.0673 0.23366,0.13153 0.35014,0.19339 0.11671,0.0621 0.23299,0.12139 0.34893,0.17831 0.11601,0.057 0.23155,0.11113 0.34667,0.1631 0.11518,0.0518 0.22984,0.101 0.34407,0.14755 0.11403,0.0464 0.22772,0.0906 0.34063,0.1316 0.11297,0.0412 0.22529,0.0796 0.33682,0.1153 0.11144,0.0358 0.2222,0.0688 0.33203,0.0993 0.11006,0.0299 0.21907,0.0579 0.32728,0.0825 0.10808,0.0246 0.21528,0.047 0.32138,0.066 0.10622,0.0193 0.21128,0.0358 0.31514,0.0493 0.10411,0.0138 0.20681,0.024 0.30851,0.033 0.10161,0.007 0.20204,0.0133 0.30105,0.0158 0.0991,0.002 0.19679,0.002 0.29308,-8.5e-4 0.0962,-0.003 0.19134,-0.009 0.28473,-0.0183 0.0934,-0.008 0.18551,-0.0205 0.27579,-0.0349 0.0904,-0.0146 0.17924,-0.0316 0.26652,-0.0518 0.0873,-0.0201 0.17278,-0.0429 0.25661,-0.0685 0.0837,-0.0258 0.16586,-0.0542 0.24619,-0.0853 0.0803,-0.0314 0.1589,-0.0653 0.23551,-0.10171 0.0763,-0.0367 0.15147,-0.0759 0.22433,-0.11789 0.0729,-0.0421 0.14388,-0.0867 0.21275,-0.13418 0.0692,-0.0472 0.13593,-0.0972 0.20086,-0.14985 0.065,-0.0524 0.12781,-0.10758 0.18855,-0.16527 0.0609,-0.0579 0.11946,-0.11802 0.17593,-0.18071 0.0567,-0.0627 0.11087,-0.12808 0.16304,-0.19573"
       title="cos(x)"
       id="path114844-9-7-2"
       inkscape:transform-center-x="-9.7141007"
       inkscape:transform-center-y="1.3885782" />
    <text
       xml:space="preserve"
       style="font-size:27.1405px;opacity:0.99;fill:#94acff;fill-opacity:1;fill-rule:evenodd;stroke:none;stroke-width:1.70965;stroke-dasharray:none;stroke-opacity:1"
       x="6.7030907"
       y="129.98578"
       id="text116148"
       transform="scale(0.95872378,1.0430533)"><tspan
         sodipodi:role="line"
         id="tspan116146"
         style="fill:#94acff;fill-opacity:1;stroke:none;stroke-width:1.70965;stroke-dasharray:none"
         x="6.7030907"
         y="129.98578">B</tspan></text>
    <text
       xml:space="preserve"
       style="font-size:25.7786px;opacity:0.99;fill:#94acff;fill-opacity:1;fill-rule:evenodd;stroke:none;stroke-width:1.62386;stroke-dasharray:none;stroke-opacity:1"
       x="34.790897"
       y="128.21422"
       id="text116148-7"
       transform="scale(0.94853604,1.0542562)"><tspan
         sodipodi:role="line"
         id="tspan116146-2"
         style="fill:#94acff;fill-opacity:1;stroke:none;stroke-width:1.62386;stroke-dasharray:none"
         x="34.790897"
         y="128.21422">OSYNCR</tspan></text>
    <text
       xml:space="preserve"
       style="font-size:26.2439px;opacity:0.99;fill:#94acff;fill-opacity:1;fill-rule:evenodd;stroke:none;stroke-width:1.65317;stroke-dasharray:none;stroke-opacity:1"
       x="164.64247"
       y="125.69187"
       id="text116148-7-3"
       transform="scale(0.92705392,1.0786859)"><tspan
         sodipodi:role="line"
         id="tspan116146-2-0"
         style="fill:#94acff;fill-opacity:1;stroke:none;stroke-width:1.65317;stroke-dasharray:none"
         x="164.64247"
         y="125.69187">TEK</tspan></text>
    <ellipse
       style="opacity:0.99;fill:#f65dbb;fill-opacity:1;fill-rule:evenodd;stroke:#94acff;stroke-width:0.763406;stroke-dasharray:none;stroke-opacity:1"
       id="path120720"
       cx="28.470436"
       cy="110.82433"
       rx="3.1381369"
       ry="3.0403266" />
    <ellipse
       style="opacity:0.99;fill:#f65dbb;fill-opacity:1;fill-rule:evenodd;stroke:none;stroke-width:0.623264;stroke-dasharray:none;stroke-opacity:1"
       id="path120720-4"
       cx="142.90872"
       cy="125.21191"
       rx="2.5898643"
       ry="2.4540203" />
  </g>
</svg>
